<?xml version="1.0" encoding="UTF-8"?>
<svg version="1.1" xmlns="http://www.w3.org/2000/svg" width="348" height="348">
<path d="M0 0 C4.30271536 3.35812396 8.16729857 7.12253709 12 11 C12.72832031 11.71800781 13.45664063 12.43601562 14.20703125 13.17578125 C31.56804604 31.35861922 36.7043415 54.12503593 36.3046875 78.5625 C35.67294713 96.52272212 27.91037407 116.08962593 15 129 C15.56807373 129.30591064 16.13614746 129.61182129 16.72143555 129.92700195 C28.53050713 136.33825471 39.14016882 142.86409181 49 152 C50.45503745 153.25383497 51.91295232 154.50434648 53.375 155.75 C54.58877879 156.82722867 55.79748055 157.91021675 57 159 C57.556875 159.50273437 58.11375 160.00546875 58.6875 160.5234375 C85.98948362 186.43504232 101.37235526 226.52185046 102.5 263.625 C102.54992853 268.97983488 101.46714637 271.87409582 98 276 C92.41872263 279.8019738 86.92272006 279.42066826 80.42321777 279.38095093 C79.25034509 279.3856309 78.07747241 279.39031087 76.86905813 279.39513266 C73.621831 279.40501767 70.37494114 279.40147443 67.1277225 279.39217401 C63.62254985 279.38538206 60.11742254 279.39586546 56.61225891 279.40411377 C49.74893743 279.41745177 42.88571439 279.41457309 36.02238905 279.40587585 C30.44429506 279.39909997 24.86622864 279.39818217 19.28813171 279.4014473 C18.49414831 279.401907 17.70016492 279.40236669 16.88212141 279.40284032 C15.269146 279.4037995 13.65617059 279.40477214 12.04319519 279.4057581 C-3.08074213 279.41431218 -18.20462489 279.40447757 -33.32855326 279.388357 C-46.30483757 279.37495379 -59.28104136 279.37728188 -72.25732422 279.39111328 C-87.3272406 279.40716877 -102.39710917 279.41348821 -117.46703291 279.40427649 C-119.07406584 279.40332085 -120.68109877 279.40237773 -122.28813171 279.4014473 C-123.07881716 279.40098447 -123.86950261 279.40052164 -124.68414822 279.40004479 C-130.25537095 279.39745481 -135.82656334 279.40182608 -141.39778137 279.40888596 C-148.18749324 279.4173008 -154.97710105 279.41502117 -161.766801 279.39904372 C-165.23085006 279.39116075 -168.69472566 279.38806973 -172.15877342 279.39799118 C-175.91376228 279.4061656 -179.66826035 279.39593388 -183.42321777 279.38095093 C-185.06591636 279.39098918 -185.06591636 279.39098918 -186.74180079 279.40123022 C-192.22529516 279.35867116 -196.3084156 279.1843068 -201 276 C-206.17984561 269.43886223 -204.34819242 260.03466812 -203.53125 252.22265625 C-198.95789125 213.6951296 -181.28261506 177.60531141 -151.55859375 152.20703125 C-147.72962075 149.24173637 -143.6646852 149.41893195 -139 150 C-135.84762343 151.81093973 -134.43358731 153.25107647 -132.625 156.375 C-131.79715006 159.85196977 -131.85748634 161.57245902 -133 165 C-135.61071375 168.65654863 -138.73329837 171.81462357 -142.0078125 174.87890625 C-164.71086711 196.28344667 -175.35197764 224.78785469 -180 255 C-94.86 255 -9.72 255 78 255 C71.59157902 222.9578951 62.55919352 197.00788634 39 174 C38.29101562 173.30519531 37.58203125 172.61039063 36.8515625 171.89453125 C27.28495649 162.94891545 16.63881333 156.01682286 4.875 150.3125 C3.80946899 149.78547485 3.80946899 149.78547485 2.72241211 149.24780273 C-0.20759789 147.88942951 -2.46663589 146.9701561 -5.72265625 147.15234375 C-8.05898565 148.02195521 -10.13873463 149.02991144 -12.3125 150.25 C-16.82140466 152.57892373 -21.35893365 154.2402716 -26.1875 155.75 C-26.85241455 155.96043945 -27.5173291 156.17087891 -28.20239258 156.38769531 C-43.01544295 160.88441561 -60.24940296 160.43360802 -75 156 C-75.94238525 155.71793701 -75.94238525 155.71793701 -76.90380859 155.43017578 C-90.40740665 151.2504115 -104.47915837 143.70714458 -114 133 C-114 132.34 -114 131.68 -114 131 C-114.66 131 -115.32 131 -116 131 C-126.83001475 119.13641538 -133.30024163 104.46791635 -137 89 C-137.1743457 88.39414063 -137.34869141 87.78828125 -137.52832031 87.1640625 C-140.57909705 73.16712409 -138.75431893 56.40123649 -134 43 C-133.5875 41.81664062 -133.175 40.63328125 -132.75 39.4140625 C-124.26522772 17.57541566 -107.35593205 1.44418302 -86.625 -8.8125 C-58.15848561 -21.03660499 -25.37453275 -17.72641359 0 0 Z M-88 18 C-88.87398437 18.59683594 -89.74796875 19.19367188 -90.6484375 19.80859375 C-104.3603047 29.95537547 -112.27593144 44.87494238 -115.6875 61.3125 C-116.85989404 75.14674966 -115.67589371 88.5986788 -109 101 C-108.56816406 101.80953125 -108.13632813 102.6190625 -107.69140625 103.453125 C-98.93483546 118.92543978 -85.52047562 129.30150464 -68.59765625 134.77734375 C-66.39795696 135.32229638 -64.2455841 135.69675018 -62 136 C-61.11183594 136.13277344 -60.22367188 136.26554688 -59.30859375 136.40234375 C-40.29267068 138.65589522 -23.50990912 132.62300701 -8.5625 121.125 C3.69799749 110.85269129 12.36349996 95.21010685 13.87109375 79.171875 C13.91363281 78.45515625 13.95617187 77.7384375 14 77 C14.05285156 76.11828125 14.10570312 75.2365625 14.16015625 74.328125 C14.70647887 56.37073818 8.18830878 39.85109496 -3.59375 26.39453125 C-16.53328955 13.51800894 -32.71779366 6.80532498 -50.8125 6.5625 C-64.75552432 6.65758976 -76.39907398 10.04274511 -88 18 Z " fill="#010101" transform="translate(225,48)"/>
<path d="" fill="#FFFFFF" transform="translate(0,0)"/>
<path d="" fill="#FFFFFF" transform="translate(0,0)"/>
<path d="" fill="#FFFFFF" transform="translate(0,0)"/>
<path d="" fill="#FFFFFF" transform="translate(0,0)"/>
<path d="" fill="#FFFFFF" transform="translate(0,0)"/>
<path d="" fill="#FFFFFF" transform="translate(0,0)"/>
<path d="" fill="#FFFFFF" transform="translate(0,0)"/>
<path d="" fill="#FFFFFF" transform="translate(0,0)"/>
<path d="" fill="#FFFFFF" transform="translate(0,0)"/>
<path d="" fill="#FFFFFF" transform="translate(0,0)"/>
<path d="" fill="#FFFFFF" transform="translate(0,0)"/>
<path d="" fill="#FFFFFF" transform="translate(0,0)"/>
<path d="" fill="#FFFFFF" transform="translate(0,0)"/>
<path d="" fill="#FFFFFF" transform="translate(0,0)"/>
<path d="" fill="#FFFFFF" transform="translate(0,0)"/>
<path d="" fill="#FFFFFF" transform="translate(0,0)"/>
<path d="" fill="#FFFFFF" transform="translate(0,0)"/>
<path d="" fill="#FFFFFF" transform="translate(0,0)"/>
<path d="" fill="#FFFFFF" transform="translate(0,0)"/>
<path d="" fill="#FFFFFF" transform="translate(0,0)"/>
<path d="" fill="#FFFFFF" transform="translate(0,0)"/>
<path d="" fill="#FFFFFF" transform="translate(0,0)"/>
<path d="" fill="#FFFFFF" transform="translate(0,0)"/>
<path d="" fill="#FFFFFF" transform="translate(0,0)"/>
<path d="" fill="#FFFFFF" transform="translate(0,0)"/>
<path d="" fill="#FFFFFF" transform="translate(0,0)"/>
<path d="" fill="#FFFFFF" transform="translate(0,0)"/>
<path d="" fill="#FFFFFF" transform="translate(0,0)"/>
<path d="" fill="#FFFFFF" transform="translate(0,0)"/>
<path d="" fill="#FFFFFF" transform="translate(0,0)"/>
<path d="" fill="#FFFFFF" transform="translate(0,0)"/>
<path d="" fill="#FFFFFF" transform="translate(0,0)"/>
<path d="" fill="#FFFFFF" transform="translate(0,0)"/>
<path d="" fill="#FFFFFF" transform="translate(0,0)"/>
<path d="" fill="#FFFFFF" transform="translate(0,0)"/>
<path d="" fill="#FFFFFF" transform="translate(0,0)"/>
<path d="" fill="#FFFFFF" transform="translate(0,0)"/>
<path d="" fill="#FFFFFF" transform="translate(0,0)"/>
<path d="" fill="#FFFFFF" transform="translate(0,0)"/>
<path d="" fill="#FFFFFF" transform="translate(0,0)"/>
<path d="" fill="#FFFFFF" transform="translate(0,0)"/>
<path d="" fill="#FFFFFF" transform="translate(0,0)"/>
<path d="" fill="#FFFFFF" transform="translate(0,0)"/>
<path d="" fill="#FFFFFF" transform="translate(0,0)"/>
<path d="" fill="#FFFFFF" transform="translate(0,0)"/>
<path d="" fill="#FFFFFF" transform="translate(0,0)"/>
<path d="" fill="#FFFFFF" transform="translate(0,0)"/>
<path d="" fill="#FFFFFF" transform="translate(0,0)"/>
<path d="" fill="#FFFFFF" transform="translate(0,0)"/>
<path d="" fill="#FFFFFF" transform="translate(0,0)"/>
<path d="" fill="#FFFFFF" transform="translate(0,0)"/>
<path d="" fill="#FFFFFF" transform="translate(0,0)"/>
<path d="" fill="#00FFFF" transform="translate(0,0)"/>
<path d="" fill="#FFFFFF" transform="translate(0,0)"/>
<path d="" fill="#FFFFFF" transform="translate(0,0)"/>
<path d="" fill="#FFFFFF" transform="translate(0,0)"/>
<path d="" fill="#FFFFFF" transform="translate(0,0)"/>
<path d="" fill="#FFFFFF" transform="translate(0,0)"/>
<path d="" fill="#FFFFFF" transform="translate(0,0)"/>
<path d="" fill="#FFFFFF" transform="translate(0,0)"/>
<path d="" fill="#FFFFFF" transform="translate(0,0)"/>
<path d="" fill="#FFFFFF" transform="translate(0,0)"/>
<path d="" fill="#FFFFFF" transform="translate(0,0)"/>
<path d="" fill="#FFFFFF" transform="translate(0,0)"/>
<path d="" fill="#FFFFFF" transform="translate(0,0)"/>
<path d="" fill="#FFFFFF" transform="translate(0,0)"/>
<path d="" fill="#FFFFFF" transform="translate(0,0)"/>
<path d="" fill="#FFFFFF" transform="translate(0,0)"/>
<path d="" fill="#FFFFFF" transform="translate(0,0)"/>
<path d="" fill="#FFFFFF" transform="translate(0,0)"/>
<path d="" fill="#FFFFFF" transform="translate(0,0)"/>
<path d="" fill="#FFFFFF" transform="translate(0,0)"/>
<path d="" fill="#FFFFFF" transform="translate(0,0)"/>
<path d="" fill="#FFFFFF" transform="translate(0,0)"/>
</svg>
