<?xml version="1.0" standalone="no"?>
<!DOCTYPE svg PUBLIC "-//W3C//DTD SVG 1.1//EN" "http://www.w3.org/Graphics/SVG/1.1/DTD/svg11.dtd" >
<svg xmlns="http://www.w3.org/2000/svg" xmlns:xlink="http://www.w3.org/1999/xlink" version="1.1">
<metadata>
Created by FontForge 20201107 at Mon Jun 24 19:56:12 2002
 By 
Copyright Hans Reichel, 1996. Published by FontShop International FontFont release 17
</metadata>
<defs>
<font id="Dax" horiz-adv-x="528" >
  <font-face 
    font-family="Dax"
    font-weight="400"
    font-stretch="normal"
    units-per-em="1000"
    panose-1="0 0 4 0 0 0 0 0 0 0"
    ascent="800"
    descent="-200"
    x-height="539"
    cap-height="688"
    bbox="-112 -227 1127.01 899"
    underline-thickness="50"
    underline-position="-125"
    unicode-range="U+0020-F002"
  />
<missing-glyph horiz-adv-x="500" 
d="M63 0v785h375v-785h-375zM125 63h250v660h-250v-660z" />
    <glyph glyph-name=".notdef" horiz-adv-x="500" 
d="M63 0v785h375v-785h-375zM125 63h250v660h-250v-660z" />
    <glyph glyph-name=".null" horiz-adv-x="0" 
 />
    <glyph glyph-name="nonmarkingreturn" horiz-adv-x="276" 
 />
    <glyph glyph-name="space" unicode=" " horiz-adv-x="276" 
 />
    <glyph glyph-name="exclam" unicode="!" horiz-adv-x="290" 
d="M208 688l-19 -462h-66l-19 462h104zM214 53q0 -24 -17 -41t-41 -17q-23 0 -40 17t-17 41q0 23 17 40t40 17q24 0 41 -17t17 -40z" />
    <glyph glyph-name="quotedbl" unicode="&#x22;" horiz-adv-x="384" 
d="M315 676l-20 -250h-46l-20 250q17 21 43 21q28 0 43 -21zM154 676l-20 -250h-45l-20 250q15 21 43 21q27 0 42 -21z" />
    <glyph glyph-name="numbersign" unicode="#" 
d="M500 431h-112l-29 -156h105v-46h-113l-39 -229h-52l40 229h-117l-42 -229h-51l41 229h-103v46h111l28 156h-103v45h111l37 212h52l-37 -212h117l37 212h52l-37 -212h104v-45zM336 431h-118l-28 -156h117z" />
    <glyph glyph-name="dollar" unicode="$" 
d="M441 194q0 -80 -48 -134.5t-127 -65.5l9 -122h-58l9 120q-94 1 -148 37l23 61q52 -33 119 -33q59 0 95 36.5t36 95.5q0 47 -28.5 78t-93.5 56q-145 55 -145 182q0 73 45.5 127t122.5 63l-9 115h56l-9 -114q76 -3 125 -36l-21 -53q-48 30 -108 30q-54 0 -85 -33.5
t-31 -88.5q0 -52 34 -84q25 -23 82 -45q155 -61 155 -192z" />
    <glyph glyph-name="percent" unicode="%" horiz-adv-x="854" 
d="M785 225q0 -236 -135 -236t-134 236q1 234 134 234q135 0 135 -234zM566 682l-234 -690l-46 14l234 689zM338 464q0 -235 -134 -235q-135 0 -135 235t135 235q134 0 134 -235zM725 226q1 194 -75 194q-75 0 -74 -194q1 -191 74 -191q74 0 75 191zM278 465q1 195 -74 195
t-75 -195q0 -191 75 -191q73 0 74 191z" />
    <glyph glyph-name="ampersand" unicode="&#x26;" horiz-adv-x="619" 
d="M602 450q-55 -26 -111 -40v-381q-59 -39 -184 -39q-116 0 -185 52.5t-69 144.5q0 74 48 126t131 77v2q-135 37 -135 151q0 68 51 111.5t136 43.5q84 0 141 -36l-25 -51q-48 27 -99 27q-116 0 -116 -100q0 -50 39 -81q36 -29 92 -29q113 0 261 78zM405 63v328
q-139 -33 -195 -74q-62 -45 -62 -125q0 -68 41.5 -106t121.5 -38q63 0 94 15z" />
    <glyph glyph-name="quotesingle" unicode="'" horiz-adv-x="224" 
d="M155 676l-21 -250h-45l-20 250q15 21 43 21t43 -21z" />
    <glyph glyph-name="parenleft" unicode="(" horiz-adv-x="363" 
d="M329 -200l-43 -26q-218 267 -218 512q0 127 52.5 249.5t165.5 261.5l43 -26q-166 -232 -166 -485q0 -252 166 -486z" />
    <glyph glyph-name="parenright" unicode=")" horiz-adv-x="363" 
d="M295 286q0 -245 -218 -512l-43 26q166 234 166 486q0 253 -166 485l43 26q113 -139 165.5 -261.5t52.5 -249.5z" />
    <glyph glyph-name="asterisk" unicode="*" horiz-adv-x="422" 
d="M370 674q0 -18 -12.5 -30t-29.5 -12q-18 0 -30 12t-12 30t12.5 30t29.5 12t29.5 -12t12.5 -30zM253 758q0 -17 -12.5 -29.5t-29.5 -12.5t-29.5 12.5t-12.5 29.5q0 18 12.5 30.5t29.5 12.5t29.5 -12.5t12.5 -30.5zM247 636q0 -15 -10.5 -25.5t-25.5 -10.5t-25.5 10.5
t-10.5 25.5q0 16 10.5 26.5t25.5 10.5t25.5 -10.5t10.5 -26.5zM330 539q0 -18 -12.5 -30t-29.5 -12t-29.5 12t-12.5 30t12.5 30t29.5 12t29.5 -12.5t12.5 -29.5zM136 674q0 -17 -12.5 -29.5t-29.5 -12.5t-29.5 12.5t-12.5 29.5q0 18 12.5 30.5t29.5 12.5t29.5 -12.5
t12.5 -30.5zM175 539q0 -17 -12.5 -29.5t-29.5 -12.5t-29.5 12.5t-12.5 29.5q0 18 12.5 30.5t29.5 12.5t29.5 -12.5t12.5 -30.5z" />
    <glyph glyph-name="plus" unicode="+" 
d="M456 304h-162v-175h-61v175h-161v60h161v175h61v-175h162v-60z" />
    <glyph glyph-name="comma" unicode="," horiz-adv-x="262" 
d="M194 78l-130 -247h-52l85 247q22 25 59 25q34 0 38 -25z" />
    <glyph glyph-name="hyphen" unicode="-" horiz-adv-x="344" 
d="M285 302h-226v70h226v-70z" />
    <glyph glyph-name="hyphen" unicode="&#x2010;" horiz-adv-x="344" 
d="M285 302h-226v70h226v-70z" />
    <glyph glyph-name="period" unicode="." horiz-adv-x="250" 
d="M182 54q0 -24 -16.5 -41t-40.5 -17t-41 17t-17 41t17 40.5t41 16.5t40.5 -16.5t16.5 -40.5z" />
    <glyph glyph-name="slash" unicode="/" horiz-adv-x="563" 
d="M547 768l-474 -995l-57 28l474 995z" />
    <glyph glyph-name="zero" unicode="0" 
d="M473 344q0 -143 -41 -235q-54 -119 -168 -119t-167 119q-42 92 -42 235t42 235q53 119 167 119t168 -119q41 -92 41 -235zM388 345q0 299 -124 299t-124 -299q0 -295 124 -295t124 295z" />
    <glyph glyph-name="one" unicode="1" 
d="M361 0h-90v578q-62 -39 -176 -49l-10 53q161 21 215 106h61v-688z" />
    <glyph glyph-name="two" unicode="2" 
d="M450 0h-410l243 345q65 92 65 163q0 124 -142 124q-67 0 -123 -28l-23 57q71 37 173 37q95 0 152 -50.5t57 -131.5q0 -78 -87 -195l-184 -248h279v-73z" />
    <glyph glyph-name="three" unicode="3" 
d="M450 199q0 -94 -65 -151.5t-165 -57.5q-111 0 -175 36l25 60q51 -30 134 -30q69 0 110 38t41 105q0 87 -71 123q-51 26 -126 23v50q79 6 126.5 42.5t47.5 94.5q0 102 -118 102q-79 0 -129 -27l-23 55q64 36 165 36q83 0 137 -40q57 -44 57 -116q0 -62 -48 -108
q-34 -32 -80 -48v-2q157 -42 157 -185z" />
    <glyph glyph-name="four" unicode="4" 
d="M473 157h-56v-157h-81v157h-281v57l278 474h84v-479h56v-52zM338 598h-2q-10 -21 -51 -96l-169 -293h220v289q0 50 2 100z" />
    <glyph glyph-name="five" unicode="5" 
d="M458 199q0 -87 -64 -147q-67 -62 -167 -62q-108 0 -172 36l23 60q58 -31 136 -31q59 0 102 36q48 40 48 107q0 156 -186 156q-40 0 -89 -8l29 342h321v-73h-258l-16 -211q29 3 56 3q116 0 178 -59q59 -55 59 -149z" />
    <glyph glyph-name="six" unicode="6" 
d="M474 201q0 -88 -52 -147q-56 -64 -154 -64q-103 0 -158 72q-52 68 -52 188q0 201 134 330q90 87 200 114l23 -59q-191 -63 -255 -242q46 18 95 18q96 0 155 -51q64 -56 64 -159zM390 205q0 157 -150 157q-53 0 -91 -18q-9 -45 -9 -96q0 -198 130 -198q60 0 92 48
q28 42 28 107z" />
    <glyph glyph-name="seven" unicode="7" 
d="M490 688l-92 -215q-129 -301 -174 -473h-110l269 615h-319v73h426z" />
    <glyph glyph-name="eight" unicode="8" 
d="M473 163q0 -76 -59 -124.5t-150 -48.5q-87 0 -146 44q-63 48 -63 128q0 59 34.5 104t116.5 93q-70 41 -99.5 81t-29.5 94q0 72 54 118t133 46q78 0 132.5 -46t54.5 -117q0 -53 -29.5 -93t-99.5 -80q82 -48 116.5 -94.5t34.5 -104.5zM378 535q0 48 -31.5 79t-81.5 31
t-81 -30.5t-31 -78.5q0 -46 24 -75.5t89 -68.5q64 36 88 67t24 76zM391 163q0 50 -24 84q-28 37 -105 82q-76 -44 -104 -81q-24 -33 -24 -83q0 -52 39 -85q36 -32 90 -32q56 0 92 32.5t36 82.5z" />
    <glyph glyph-name="nine" unicode="9" 
d="M470 434q0 -201 -134 -330q-90 -87 -200 -114l-23 58q192 65 255 243q-46 -18 -95 -18q-96 0 -154 51q-65 56 -65 158q0 89 52 148q57 64 155 64q103 0 156 -69.5t53 -190.5zM387 438q0 199 -129 199q-61 0 -93 -49q-28 -42 -28 -107q0 -157 150 -157q52 0 92 18
q8 41 8 96z" />
    <glyph glyph-name="colon" unicode=":" horiz-adv-x="250" 
d="M182 361q0 -24 -16.5 -40.5t-40.5 -16.5t-41 16.5t-17 40.5t17 41t41 17t40.5 -17t16.5 -41zM182 54q0 -24 -16.5 -41t-40.5 -17t-41 17t-17 41t17 40.5t41 16.5t40.5 -16.5t16.5 -40.5z" />
    <glyph glyph-name="semicolon" unicode=";" horiz-adv-x="262" 
d="M194 361q0 -24 -17 -40.5t-41 -16.5q-23 0 -40 16.5t-17 40.5t17 41t40 17q24 0 41 -17t17 -41zM194 78l-130 -247h-52l85 247q23 27 58 27t39 -27z" />
    <glyph glyph-name="less" unicode="&#x3c;" 
d="M456 140l-384 168v58l384 169v-66l-312 -132l312 -132v-65z" />
    <glyph glyph-name="equal" unicode="=" 
d="M456 392h-384v60h384v-60zM456 215h-384v60h384v-60z" />
    <glyph glyph-name="greater" unicode="&#x3e;" 
d="M456 308l-384 -168v65l312 132l-312 132v66l384 -169v-58z" />
    <glyph glyph-name="question" unicode="?" horiz-adv-x="394" 
d="M380 534q0 -61 -51 -109q-41 -38 -93 -53l-11 -146h-66l-14 173q56 13 95 42q48 37 48 88q0 47 -28 74q-31 30 -89 30q-56 0 -104 -26l-25 52q61 37 144 37q89 0 141.5 -44t52.5 -118zM250 53q0 -24 -17 -41t-41 -17q-23 0 -40 17t-17 41t17 41t40 17q24 0 41 -17t17 -41
z" />
    <glyph glyph-name="at" unicode="@" horiz-adv-x="870" 
d="M803 413q0 -115 -56 -222q-66 -126 -164 -126q-67 0 -71 92q-56 -91 -155 -91q-58 0 -89 47q-29 43 -29 109q0 92 52 176q60 97 148 97q85 0 116 -94l15 77h50l-34 -158q-25 -116 -25 -149q0 -37 9 -51.5t32 -14.5q60 0 111 109q48 102 48 199q0 115 -69 183.5t-181 68.5
q-170 0 -288 -137q-114 -131 -114 -307q0 -154 91 -239q88 -82 237 -82q108 0 188 38q70 33 141 109l22 -26q-71 -80 -150 -116q-85 -40 -201 -40q-170 0 -269 92q-102 95 -102 265q0 193 131.5 335t316.5 142q129 0 209 -77t80 -209zM535 335q1 57 -27 90q-25 30 -63 30
q-70 0 -114 -86q-37 -71 -37 -145q0 -49 21 -81q24 -36 67 -36q69 0 114 84q37 70 39 144z" />
    <glyph glyph-name="A" unicode="A" horiz-adv-x="585" 
d="M566 0h-95l-65 206h-236l-67 -206h-84l233 688h82zM391 261l-80 261q-17 54 -20 83h-2q-6 -28 -21 -83l-82 -261h205z" />
    <glyph glyph-name="B" unicode="B" horiz-adv-x="562" 
d="M514 186q0 -99 -71 -150q-65 -46 -178 -46q-118 0 -188 38v632q66 38 179 38q110 0 173 -48q59 -47 59 -124q0 -68 -44 -112q-36 -38 -90 -48v-2q58 -11 104 -54q56 -52 56 -124zM399 519q0 126 -144 126q-49 0 -91 -15v-245h45q104 0 147 32t43 102zM421 185
q0 81 -50 117.5t-161 36.5h-46v-274q38 -16 97 -16q160 0 160 136z" />
    <glyph glyph-name="C" unicode="C" horiz-adv-x="478" 
d="M447 28q-50 -38 -135 -38q-120 0 -191 104q-67 98 -67 250q0 150 67 249q71 105 191 105q82 0 134 -38l-22 -54q-44 27 -96 27q-92 0 -138 -90q-40 -76 -40 -199q0 -122 41 -198q47 -87 136 -87q52 0 96 27z" />
    <glyph glyph-name="D" unicode="D" horiz-adv-x="595" 
d="M541 351q0 -166 -68 -260q-73 -101 -214 -101q-119 0 -182 37v633q69 38 178 38q140 0 214 -94q72 -90 72 -253zM446 352q0 287 -193 287q-51 0 -85 -14v-557q33 -13 86 -13q102 0 148 76q44 71 44 221z" />
    <glyph glyph-name="E" unicode="E" horiz-adv-x="442" 
d="M396 0h-319v688h319v-62h-227v-240h204v-61h-204v-263h227v-62z" />
    <glyph glyph-name="F" unicode="F" horiz-adv-x="434" 
d="M395 626h-226v-240h203v-61h-203v-325h-92v688h318v-62z" />
    <glyph glyph-name="G" unicode="G" horiz-adv-x="588" 
d="M517 28q-66 -38 -174 -38q-127 0 -204 88q-85 96 -85 271q0 165 86 260q79 89 203 89q104 0 161 -36l-27 -57q-46 28 -124 28q-204 0 -204 -292q0 -136 56 -214q53 -73 137 -73q58 0 86 16v258h-117v58h206v-358z" />
    <glyph glyph-name="H" unicode="H" horiz-adv-x="597" 
d="M520 0h-92v325h-259v-325h-92v688h92v-302h259v302h92v-688z" />
    <glyph glyph-name="I" unicode="I" horiz-adv-x="253" 
d="M172 0h-92v688h92v-688z" />
    <glyph glyph-name="J" unicode="J" horiz-adv-x="253" 
d="M172 28q0 -106 -65 -174q-59 -61 -151 -74v65q54 14 87 58q37 49 37 120v665h92v-660z" />
    <glyph glyph-name="K" unicode="K" horiz-adv-x="519" 
d="M501 0h-104l-224 356h-2v-356h-91v688h91v-319h2l221 319h96l-235 -320z" />
    <glyph glyph-name="L" unicode="L" horiz-adv-x="411" 
d="M379 0h-299v688h92v-626h207v-62z" />
    <glyph glyph-name="M" unicode="M" horiz-adv-x="782" 
d="M729 0h-87q-1 8 -53 515q-4 40 -5 81h-2q-3 -19 -19 -81l-146 -515h-61q-3 9 -144 516q-11 38 -19 80h-2q0 -20 -5 -80l-54 -516h-79l82 688h97l138 -497q12 -43 18 -78h2q3 16 18 77l142 498h97z" />
    <glyph glyph-name="N" unicode="N" horiz-adv-x="647" 
d="M570 0h-80l-293 502q-23 40 -44 83h-2q3 -45 3 -85v-500h-77v688h97l281 -483q23 -39 39 -73h2q-3 36 -3 76v480h77v-688z" />
    <glyph glyph-name="O" unicode="O" horiz-adv-x="605" 
d="M551 344q0 -159 -57 -251q-64 -103 -191 -103t-192 103q-57 92 -57 251q0 158 57 250q65 104 192 104q126 0 191 -104q57 -92 57 -250zM458 347q0 290 -155 290q-156 0 -156 -290q0 -289 156 -289q155 0 155 289z" />
    <glyph glyph-name="P" unicode="P" horiz-adv-x="525" 
d="M484 490q0 -91 -56 -147q-63 -62 -183 -62q-22 0 -47 2l-31 3v-286h-90v660q66 38 172 38q117 0 178 -59q57 -54 57 -149zM395 491q0 152 -150 152q-48 0 -78 -13v-288l30 -3q20 -2 38 -2q160 0 160 154z" />
    <glyph glyph-name="Q" unicode="Q" horiz-adv-x="605" 
d="M551 345q0 -236 -131 -324l119 -150l-69 -61l-104 191q-32 -8 -63 -8q-127 0 -192 103q-57 91 -57 249t57 250q65 103 192 103t191 -103q57 -92 57 -250zM459 349q0 288 -156 288t-156 -288q0 -289 156 -289t156 289z" />
    <glyph glyph-name="R" unicode="R" horiz-adv-x="542" 
d="M502 0h-104l-226 321h-2v-321h-91v661q67 37 171 37q116 0 176 -53.5t60 -150.5q0 -87 -56.5 -137t-152.5 -52v-2zM395 490q0 154 -147 154q-51 0 -78 -15v-288q20 -6 59 -6q166 0 166 155z" />
    <glyph glyph-name="S" unicode="S" horiz-adv-x="465" 
d="M411 194q0 -90 -58.5 -147t-149.5 -57q-101 0 -160 38l24 64q52 -32 120 -32q59 0 94 35t35 94q0 46 -27.5 76t-92.5 56q-146 58 -146 184q0 81 53.5 137t140.5 56q88 0 141 -37l-22 -58q-51 32 -109 32q-54 0 -84 -32.5t-30 -88.5q0 -49 34 -80q25 -24 81 -46
q156 -61 156 -194z" />
    <glyph glyph-name="T" unicode="T" horiz-adv-x="426" 
d="M396 626h-137v-626h-92v626h-137v62h366v-62z" />
    <glyph glyph-name="U" unicode="U" horiz-adv-x="583" 
d="M506 196q0 -90 -58 -147q-60 -60 -157 -60q-96 0 -155 59t-59 148v492h92v-491q0 -63 37 -99.5t90 -36.5t89.5 36.5t36.5 99.5v491h84v-492z" />
    <glyph glyph-name="V" unicode="V" horiz-adv-x="529" 
d="M508 688l-200 -688h-80l-204 688h98l127 -484q10 -40 20 -90h2q5 24 21 90l129 484h87z" />
    <glyph glyph-name="W" unicode="W" horiz-adv-x="817" 
d="M783 688l-161 -688h-81l-116 480q-9 38 -15 77h-2q-5 -32 -13 -77l-117 -480h-81l-161 688h95l99 -497q7 -37 12 -79h2q3 19 15 79l119 497h70l118 -497q8 -34 14 -79h2q2 21 12 79l104 497h85z" />
    <glyph glyph-name="X" unicode="X" horiz-adv-x="519" 
d="M496 0h-104l-134 285h-2l-139 -285h-93l187 354l-167 334h100l116 -260h2l131 260h86l-171 -323z" />
    <glyph glyph-name="Y" unicode="Y" horiz-adv-x="500" 
d="M485 688l-189 -383v-305h-92v305l-187 383h99l137 -311h2l142 311h88z" />
    <glyph glyph-name="Z" unicode="Z" horiz-adv-x="433" 
d="M400 0h-376l253 626h-237v62h353l-250 -626h257v-62z" />
    <glyph glyph-name="bracketleft" unicode="[" horiz-adv-x="343" 
d="M294 -215h-216v1000h215v-52h-136v-895h137v-53z" />
    <glyph glyph-name="backslash" unicode="\" horiz-adv-x="568" 
d="M552 -198l-59 -29l-477 994l59 30z" />
    <glyph glyph-name="bracketright" unicode="]" horiz-adv-x="343" 
d="M265 -215h-216v53h136v895h-136v52h216v-1000z" />
    <glyph glyph-name="asciicircum" unicode="^" horiz-adv-x="578" 
d="M483 479l-32 -33l-162 184l-162 -184l-32 33l147 192q19 25 47 25t47 -25z" />
    <glyph glyph-name="underscore" unicode="_" 
d="M538 -197h-548v57h548v-57z" />
    <glyph glyph-name="grave" unicode="`" horiz-adv-x="196" 
d="M156 598h-50l-114 136q6 18 37 18q30 0 57 -17z" />
    <glyph glyph-name="a" unicode="a" horiz-adv-x="499" 
d="M428 28q-68 -38 -179 -38q-205 0 -205 159q0 99 88 148q70 39 213 54v33q0 107 -119 107q-62 0 -130 -34l-21 52q73 40 165 40q188 0 188 -175v-346zM345 59v247q-113 -14 -159 -43q-58 -36 -58 -112q0 -110 128 -110q56 0 89 18z" />
    <glyph glyph-name="b" unicode="b" horiz-adv-x="527" 
d="M477 279q0 -133 -62 -209q-65 -80 -183 -80q-103 0 -161 38v757h87v-264q48 25 110 25q94 0 151.5 -73t57.5 -194zM389 276q0 96 -33 153q-38 65 -110 65q-50 0 -88 -21v-413q26 -13 76 -13q155 0 155 229z" />
    <glyph glyph-name="c" unicode="c" horiz-adv-x="411" 
d="M376 26q-40 -36 -121 -36q-90 0 -147.5 76t-57.5 204q0 130 59 206q56 73 148 73q78 0 119 -36l-21 -51q-35 26 -80 26q-136 0 -136 -215q0 -99 34 -157q35 -61 99 -61q45 0 82 26z" />
    <glyph glyph-name="d" unicode="d" horiz-adv-x="527" 
d="M456 28q-62 -38 -169 -38q-113 0 -175 73t-62 198q0 132 65 209q63 74 169 74q42 0 85 -12v253h87v-757zM369 63v420q-37 10 -67 10q-87 0 -129 -69q-36 -57 -36 -156q0 -220 154 -220q55 0 78 15z" />
    <glyph glyph-name="e" unicode="e" horiz-adv-x="522" 
d="M472 285l-339 -49q15 -182 164 -182q79 0 133 31l23 -58q-61 -37 -163 -37q-110 0 -173 69q-67 73 -67 212q0 134 61 208q58 70 156 70q208 0 205 -264zM388 322q0 170 -124 170q-62 0 -97 -50q-38 -54 -37 -159z" />
    <glyph glyph-name="f" unicode="f" horiz-adv-x="310" 
d="M283 484h-94v-484h-88v484h-62v55h62v76q0 81 47.5 127.5t134.5 42.5v-56q-94 -5 -94 -104v-86h94v-55z" />
    <glyph glyph-name="g" unicode="g" horiz-adv-x="526" 
d="M455 -11q0 -102 -55 -158.5t-152 -56.5q-106 0 -167 37l27 59q56 -32 125 -32q137 0 137 141v38q-39 -23 -108 -23q-97 0 -154.5 71.5t-57.5 194.5q0 132 63.5 210.5t181.5 78.5q101 0 160 -38v-522zM370 68v413q-27 15 -77 15q-156 0 -156 -233q0 -217 148 -217
q49 0 85 22z" />
    <glyph glyph-name="h" unicode="h" horiz-adv-x="533" 
d="M462 0h-88v382q0 106 -110 106q-60 0 -105 -27v-461h-88v785h88v-274q65 33 124 33q94 0 141 -51q38 -42 38 -108v-385z" />
    <glyph glyph-name="i" unicode="i" horiz-adv-x="241" 
d="M172 691q0 -20 -15 -34t-36 -14q-22 0 -37 14t-15 34t15 34.5t37 14.5q21 0 36 -14.5t15 -34.5zM165 0h-88v539h88v-539z" />
    <glyph glyph-name="j" unicode="j" horiz-adv-x="244" 
d="M175 691q0 -20 -15 -34t-37 -14q-21 0 -36.5 14.5t-15.5 33.5q0 20 15 34.5t37 14.5t37 -14.5t15 -34.5zM167 31q0 -110 -57 -181q-53 -63 -130 -72v58q99 36 99 189v514h88v-508z" />
    <glyph glyph-name="k" unicode="k" horiz-adv-x="476" 
d="M470 0h-100l-206 278h-2v-278h-86v785h86v-496h2l192 250h92l-204 -252z" />
    <glyph glyph-name="l" unicode="l" horiz-adv-x="243" 
d="M165 0h-88v785h88v-785z" />
    <glyph glyph-name="m" unicode="m" horiz-adv-x="836" 
d="M765 0h-88v388q0 103 -104 103q-66 0 -111 -48v-443h-88v392q0 46 -30.5 73t-87.5 27q-53 0 -97 -18v-474h-88v511q78 38 187 38q113 0 165 -65q62 65 167 65q89 0 136 -51q39 -43 39 -108v-390z" />
    <glyph glyph-name="n" unicode="n" horiz-adv-x="533" 
d="M462 0h-88v387q0 105 -113 105q-58 0 -102 -19v-473h-88v511q79 38 197 38q103 0 153 -51q41 -42 41 -109v-389z" />
    <glyph glyph-name="o" unicode="o" horiz-adv-x="521" 
d="M471 269q0 -125 -50 -199q-55 -80 -160 -80t-161 80q-50 74 -50 199q0 127 51 200q55 80 159 80q106 0 161 -80q50 -72 50 -200zM383 269q0 224 -122 224q-123 0 -123 -224q0 -218 123 -218q122 0 122 218z" />
    <glyph glyph-name="p" unicode="p" horiz-adv-x="527" 
d="M477 278q0 -133 -64 -209.5t-171 -76.5q-47 0 -84 13v-220h-87v726q65 38 168 38q113 0 175.5 -73t62.5 -198zM389 274q0 222 -154 222q-42 0 -77 -15v-423q29 -12 66 -12q81 0 123 59.5t42 168.5z" />
    <glyph glyph-name="q" unicode="q" horiz-adv-x="527" 
d="M456 -215h-86v232q-43 -25 -109 -25q-97 0 -154 72t-57 195q0 131 60 208q64 82 185 82q102 0 161 -38v-726zM370 68v413q-27 15 -77 15q-156 0 -156 -233q0 -217 147 -217q48 0 86 22z" />
    <glyph glyph-name="r" unicode="r" horiz-adv-x="322" 
d="M303 548l-21 -67q-26 8 -53 8q-43 0 -70 -18v-471h-88v510q82 42 232 38z" />
    <glyph glyph-name="s" unicode="s" horiz-adv-x="404" 
d="M357 150q0 -64 -49 -110q-52 -48 -132 -48q-89 0 -138 37l24 58q38 -32 105 -32q44 0 72 26.5t28 66.5t-21 63t-68 40q-126 47 -126 151q0 62 44.5 105t116.5 43q71 0 126 -37l-23 -53q-40 30 -90 30q-42 0 -66 -24.5t-24 -60.5q0 -63 90 -97q131 -50 131 -158z" />
    <glyph glyph-name="t" unicode="t" horiz-adv-x="321" 
d="M283 3q-27 -8 -48 -8q-68 0 -104 43q-30 37 -30 93v353h-62v55h62v124l88 27v-151h94v-55h-94v-351q0 -78 68 -78q8 0 26 4v-56z" />
    <glyph glyph-name="u" unicode="u" horiz-adv-x="523" 
d="M452 32q-75 -43 -190 -43q-191 0 -191 176v374h88v-377q0 -50 26 -79q29 -32 82 -32q60 0 97 22v466h88v-507z" />
    <glyph glyph-name="v" unicode="v" horiz-adv-x="488" 
d="M462 539l-175 -539h-79l-179 539h94l113 -386q10 -34 14 -66h2q1 15 13 66l115 386h82z" />
    <glyph glyph-name="w" unicode="w" horiz-adv-x="771" 
d="M739 539l-154 -539h-76l-109 385q-9 31 -11 63h-1q-2 -15 -13 -63l-111 -385h-76l-153 539h90l94 -387q9 -37 11 -64h2q4 24 13 64l109 387h76l106 -387q8 -29 12 -64h2q1 17 11 65l98 386h80z" />
    <glyph glyph-name="x" unicode="x" horiz-adv-x="472" 
d="M448 0h-97l-116 219h-2l-118 -219h-91l167 279l-149 260h92l105 -197h2l107 197h83l-150 -253z" />
    <glyph glyph-name="y" unicode="y" horiz-adv-x="488" 
d="M462 539l-248 -754h-95l90 215l-180 539h94l111 -387q11 -37 13 -69h2q5 27 14 69l117 387h82z" />
    <glyph glyph-name="z" unicode="z" horiz-adv-x="417" 
d="M377 0h-347l227 484h-210v55h322l-222 -484h230v-55z" />
    <glyph glyph-name="braceleft" unicode="{" horiz-adv-x="370" 
d="M315 -129q-186 0 -186 153v156q0 67 -18 95t-59 30v49q41 2 59 30t18 93v156q0 152 186 152v-48q-108 0 -108 -102v-184q0 -103 -83 -121q1 -1 0 -2q83 -20 83 -122v-184q0 -102 108 -102v-49z" />
    <glyph glyph-name="bar" unicode="|" horiz-adv-x="228" 
d="M150 -215h-72v1000h72v-1000z" />
    <glyph glyph-name="braceright" unicode="}" horiz-adv-x="370" 
d="M318 305q-41 -2 -59 -30t-18 -95v-156q0 -153 -186 -153v49q109 0 109 102v184q0 103 82 122v2q-82 18 -82 121v184q0 102 -109 102v48q186 0 186 -152v-156q0 -65 18 -93t59 -30v-49z" />
    <glyph glyph-name="asciitilde" unicode="~" horiz-adv-x="578" 
d="M494 353q-22 -69 -103 -80q-38 -5 -98.5 31t-97.5 31q-54 -7 -80 -67l-31 51q32 75 99 82q44 5 103 -31.5t94 -31.5q56 8 80 67z" />
    <glyph glyph-name="nonbreakingspace" unicode="&#xa0;" horiz-adv-x="276" 
 />
    <glyph glyph-name="exclamdown" unicode="&#xa1;" horiz-adv-x="290" 
d="M214 420q0 -24 -17 -40.5t-41 -16.5q-23 0 -40 16.5t-17 40.5t17 41t40 17q24 0 41 -17t17 -41zM208 -215h-104l19 462h66z" />
    <glyph glyph-name="cent" unicode="&#xa2;" 
d="M409 134q-37 -27 -107 -30l8 -103h-61l9 106q-79 11 -124.5 72t-45.5 165q0 100 46.5 163.5t125.5 74.5l-9 105h60l-7 -103q69 -3 105 -30l-19 -46q-33 21 -80 21q-137 0 -137 -182q0 -85 35 -134.5t100 -49.5q46 0 81 21z" />
    <glyph glyph-name="sterling" unicode="&#xa3;" 
d="M477 0h-408q98 117 98 237q0 41 -13 93h-96v52h82q-23 77 -23 135q0 77 55.5 129t147.5 52q94 0 146 -35l-23 -56q-49 27 -109 27q-131 0 -131 -141q0 -50 17 -111h136v-52h-126q9 -39 9 -91q0 -44 -20 -100q-16 -45 -31 -66h289v-73z" />
    <glyph glyph-name="currency" unicode="&#xa4;" 
d="M483 157l-35 -35l-72 72q-49 -38 -112 -38t-112 38l-72 -72l-35 35l72 72q-38 49 -38 112t38 112l-72 72l35 35l72 -72q49 38 112 38t112 -38l72 72l35 -35l-72 -72q38 -49 38 -112t-38 -112zM392 341q0 53 -37.5 90.5t-90.5 37.5t-90.5 -37.5t-37.5 -90.5t37.5 -91
t90.5 -38t90.5 38t37.5 91z" />
    <glyph glyph-name="yen" unicode="&#xa5;" 
d="M494 688l-121 -248l108 7v-45l-122 9l-50 -101l172 7v-46l-174 10v-281h-85v281l-176 -10v46l174 -7l-50 101l-124 -9v45l110 -7l-122 248h93l139 -319h2l144 319h82z" />
    <glyph glyph-name="brokenbar" unicode="&#xa6;" horiz-adv-x="228" 
d="M150 390h-72v395h72v-395zM150 -215h-72v395h72v-395z" />
    <glyph glyph-name="section" unicode="&#xa7;" 
d="M453 217q0 -96 -119 -167q70 -62 70 -133q0 -60 -46 -100t-117 -40q-80 0 -132 36l24 55q40 -31 94 -31q40 0 67.5 21t27.5 57q0 52 -56 99l-103 87q-87 73 -87 169q0 97 117 171q-59 56 -59 124q0 54 42 92t107 38q76 0 124 -34l-22 -49q-40 27 -90 27q-38 0 -61 -19.5
t-23 -55.5q0 -52 68 -110l81 -69q52 -44 72.5 -81.5t20.5 -86.5zM379 206q0 39 -12 65q-13 30 -50 61l-87 74q-85 -51 -85 -124q0 -71 67 -128l81 -69q86 54 86 121z" />
    <glyph glyph-name="dieresis" unicode="&#xa8;" horiz-adv-x="196" 
d="M225 659q0 -18 -13 -30t-32 -12t-32 12.5t-13 29.5q0 18 13 30.5t32 12.5t32 -12.5t13 -30.5zM61 659q0 -18 -13.5 -30t-32.5 -12t-32 12.5t-13 29.5q0 18 13 30.5t32 12.5t32.5 -12.5t13.5 -30.5z" />
    <glyph glyph-name="copyright" unicode="&#xa9;" horiz-adv-x="825" 
d="M766 343q0 -146 -104 -249.5t-250 -103.5t-249.5 103.5t-103.5 249.5q0 147 103.5 250.5t249.5 103.5t250 -103.5t104 -250.5zM723 343q0 128 -91 219.5t-220 91.5q-128 0 -219 -91.5t-91 -219.5t91 -219t219 -91q129 0 220 91t91 219zM576 211q-63 -76 -161 -76
q-87 0 -148.5 61.5t-61.5 148.5q0 88 61.5 149.5t148.5 61.5q95 0 160 -75l-34 -31q-51 61 -126 61q-68 0 -116 -48.5t-48 -117.5q0 -68 48 -116.5t116 -48.5q74 0 125 59z" />
    <glyph glyph-name="ordfeminine" unicode="&#xaa;" horiz-adv-x="353" 
d="M301 375q-47 -25 -119 -25q-139 0 -139 100q0 63 60 93q43 21 139 30v19q0 62 -75 62q-42 0 -84 -20l-15 37q46 24 108 24q125 0 125 -108v-212zM242 397v142q-74 -9 -103 -24q-38 -20 -38 -65q0 -63 85 -63q34 0 56 10z" />
    <glyph glyph-name="guillemotleft" unicode="&#xab;" horiz-adv-x="514" 
d="M442 147l-47 -31l-151 218l151 218l47 -31l-128 -187zM258 147l-47 -31l-151 218l151 218l47 -31l-128 -187z" />
    <glyph glyph-name="logicalnot" unicode="&#xac;" 
d="M456 146h-63v160h-321v60h384v-220z" />
    <glyph glyph-name="minus" unicode="&#xad;" 
d="M456 303h-384v60h384v-60z" />
    <glyph glyph-name="minus" unicode="&#x2212;" 
d="M456 303h-384v60h384v-60z" />
    <glyph glyph-name="registered" unicode="&#xae;" horiz-adv-x="825" 
d="M766 343q0 -146 -104 -249.5t-250 -103.5t-249.5 103.5t-103.5 249.5q0 147 103.5 250.5t249.5 103.5t250 -103.5t104 -250.5zM723 343q0 128 -91 219.5t-220 91.5q-128 0 -219 -91.5t-91 -219.5t91 -219t219 -91q129 0 220 91t91 219zM557 139h-56l-137 193h-15v-193
h-47v408q40 20 98 20q59 0 97 -29q42 -33 42 -89q0 -52 -34.5 -81.5t-89.5 -32.5zM491 450q0 78 -97 78q-26 0 -45 -8v-155h37q105 0 105 85z" />
    <glyph glyph-name="macron" unicode="&#xaf;" horiz-adv-x="196" 
d="M240 629h-284v51h284v-51z" />
    <glyph glyph-name="macron" unicode="&#x2c9;" horiz-adv-x="196" 
d="M240 629h-284v51h284v-51z" />
    <glyph glyph-name="degree" unicode="&#xb0;" horiz-adv-x="420" 
d="M360 549q0 -62 -44 -106t-106 -44t-106 44t-44 106t44 106t106 44t106 -44t44 -106zM313 549q0 43 -30 73t-73 30t-73 -30t-30 -73t30 -73t73 -30t73 30t30 73z" />
    <glyph glyph-name="plusminus" unicode="&#xb1;" 
d="M456 364h-162v-173h-61v173h-161v58h161v171h61v-171h162v-58zM456 71h-384v58h384v-58z" />
    <glyph glyph-name="twosuperior" unicode="&#xb2;" horiz-adv-x="368" 
d="M308 271h-260l152 210q38 52 38 92q0 70 -82 70q-38 0 -70 -16l-19 43q48 24 107 24q60 0 95.5 -31.5t35.5 -83.5q0 -49 -53 -118l-105 -136h161v-54z" />
    <glyph glyph-name="threesuperior" unicode="&#xb3;" horiz-adv-x="368" 
d="M305 393q0 -58 -40.5 -93.5t-101.5 -35.5q-66 0 -110 25l18 45q36 -19 82 -19q85 0 85 78q0 87 -117 82v40q103 8 103 75q0 57 -67 57q-38 0 -72 -17l-18 41q44 24 101 24q51 0 85.5 -26t34.5 -72q0 -60 -68 -92q85 -29 85 -112z" />
    <glyph glyph-name="acute" unicode="&#xb4;" horiz-adv-x="196" 
d="M204 734l-114 -136h-50l70 137q27 17 58 17q30 0 36 -18z" />
    <glyph glyph-name="mu" unicode="&#xb5;" horiz-adv-x="533" 
d="M462 33q-72 -40 -176 -40q-65 0 -127 34v-242h-88v754h88v-461q50 -28 109 -28q66 0 106 22v467h88v-506z" />
    <glyph glyph-name="mu" unicode="&#x3bc;" horiz-adv-x="533" 
d="M462 33q-72 -40 -176 -40q-65 0 -127 34v-242h-88v754h88v-461q50 -28 109 -28q66 0 106 22v467h88v-506z" />
    <glyph glyph-name="paragraph" unicode="&#xb6;" 
d="M486 643h-31v-858h-63v858h-135v-858h-63v540q-76 8 -121 56.5t-45 121.5q0 94 67 143q58 42 154 42h237v-45z" />
    <glyph glyph-name="periodcentered" unicode="&#xb7;" horiz-adv-x="243" 
d="M180 344q0 -24 -17 -41t-41 -17q-25 0 -42 17t-17 41t17 41t42 17q24 0 41 -17t17 -41z" />
    <glyph glyph-name="periodcentered" unicode="&#x2219;" horiz-adv-x="243" 
d="M180 344q0 -24 -17 -41t-41 -17q-25 0 -42 17t-17 41t17 41t42 17q24 0 41 -17t17 -41z" />
    <glyph glyph-name="cedilla" unicode="&#xb8;" horiz-adv-x="196" 
d="M226 -124q0 -75 -178 -75q-36 0 -78 3l20 34q26 -2 51 -2q119 0 119 39q0 34 -80 34q-20 0 -47 -2l20 31q29 3 53 3q120 0 120 -65z" />
    <glyph glyph-name="onesuperior" unicode="&#xb9;" horiz-adv-x="368" 
d="M250 271h-64v336q-41 -14 -106 -19l-6 35q97 12 132 65h44v-417z" />
    <glyph glyph-name="ordmasculine" unicode="&#xba;" horiz-adv-x="353" 
d="M318 524q0 -77 -34 -123q-37 -50 -107 -50q-71 0 -108 50q-34 46 -34 123q0 78 34 123q37 50 107 50q72 0 109 -50q33 -45 33 -123zM255 524q0 134 -78 134q-79 0 -79 -133q0 -130 79 -130q78 0 78 129z" />
    <glyph glyph-name="guillemotright" unicode="&#xbb;" horiz-adv-x="514" 
d="M454 334l-150 -218l-47 31l127 187l-127 187l47 31zM271 334l-151 -218l-48 31l128 187l-128 187l48 31z" />
    <glyph glyph-name="onequarter" unicode="&#xbc;" horiz-adv-x="799" 
d="M723 93h-34v-93h-60v93h-169v41l170 284h59v-284h34v-41zM583 680l-331 -695l-53 23l331 694zM225 271h-64v336q-39 -14 -107 -19l-6 35q99 14 133 65h44v-417zM630 349h-2q-5 -13 -26 -52l-96 -163h123v163q0 24 1 52z" />
    <glyph glyph-name="onehalf" unicode="&#xbd;" horiz-adv-x="799" 
d="M723 0h-258l152 207q37 50 37 95q0 72 -82 72q-34 0 -66 -18l-18 43q44 25 102 25q60 0 95.5 -33t35.5 -84q0 -55 -52 -120l-106 -133h160v-54zM567 680l-331 -695l-53 23l331 694zM225 271h-64v336q-39 -14 -107 -19l-6 35q99 14 133 65h44v-417z" />
    <glyph glyph-name="threequarters" unicode="&#xbe;" horiz-adv-x="799" 
d="M728 93h-34v-93h-60v93h-169v41l170 284h59v-284h34v-41zM615 680l-332 -695l-53 23l331 694zM305 393q0 -58 -40 -93.5t-102 -35.5q-66 0 -110 25l18 45q36 -19 82 -19q85 0 85 78q0 87 -116 82v40q102 8 102 75q0 57 -66 57q-38 0 -72 -17l-19 41q44 24 102 24
q51 0 85 -26t34 -72q0 -61 -67 -92q84 -29 84 -112zM635 349q-6 -13 -28 -52l-96 -163h123v163q0 23 1 52z" />
    <glyph glyph-name="questiondown" unicode="&#xbf;" horiz-adv-x="394" 
d="M287 420q0 -23 -17 -40t-40 -17q-24 0 -41 17t-17 40q0 24 17 41t41 17q23 0 40 -17t17 -41zM380 -185q-58 -37 -144 -37q-89 0 -141.5 43.5t-52.5 117.5q0 61 51 109q40 38 93 54l11 146h66l14 -174q-56 -13 -95 -42q-48 -36 -48 -87q0 -104 117 -104q56 0 104 26z" />
    <glyph glyph-name="Agrave" unicode="&#xc0;" horiz-adv-x="585" 
d="M321 740h-50l-114 136q6 18 36 18t57 -17zM566 0h-95l-65 206h-236l-67 -206h-84l233 688h82zM391 261l-80 261q-17 54 -20 81h-2q-6 -27 -21 -81l-82 -261h205z" />
    <glyph glyph-name="Aacute" unicode="&#xc1;" horiz-adv-x="585" 
d="M419 876l-114 -136h-50l70 137q27 17 57 17t37 -18zM566 0h-95l-65 206h-236l-67 -206h-84l233 688h82zM391 261l-80 261q-17 54 -20 81h-2q-6 -27 -21 -81l-82 -261h205z" />
    <glyph glyph-name="Acircumflex" unicode="&#xc2;" horiz-adv-x="585" 
d="M426 760l-26 -21l-106 79l-108 -79l-25 21l99 101q15 15 33 15q19 0 34 -15zM566 0h-95l-65 206h-236l-67 -206h-84l233 688h82zM391 261l-80 261q-17 54 -20 81h-2q-6 -27 -21 -81l-82 -261h205z" />
    <glyph glyph-name="Atilde" unicode="&#xc3;" horiz-adv-x="585" 
d="M433 806q-15 -44 -68 -52q-29 -4 -71 17.5t-65 19.5q-35 -4 -52 -44l-26 40q21 50 71 55q30 3 69 -19.5t62 -19.5q37 5 52 44zM566 0h-95l-65 206h-236l-67 -206h-84l233 688h82zM391 261l-80 261q-17 54 -20 81h-2q-6 -27 -21 -81l-82 -261h205z" />
    <glyph glyph-name="Adieresis" unicode="&#xc4;" horiz-adv-x="585" 
d="M421 800q0 -18 -13.5 -30.5t-32.5 -12.5q-18 0 -31.5 12.5t-13.5 30.5t13.5 30.5t31.5 12.5q19 0 32.5 -12.5t13.5 -30.5zM256 800q0 -18 -13 -30.5t-32 -12.5t-32 12.5t-13 30.5t13 30.5t32 12.5t32 -12.5t13 -30.5zM566 0h-95l-65 206h-236l-67 -206h-84l233 688h82z
M391 261l-80 261q-17 54 -20 81h-2q-6 -27 -21 -81l-82 -261h205z" />
    <glyph glyph-name="Aring" unicode="&#xc5;" horiz-adv-x="585" 
d="M374 818q0 -33 -23.5 -56.5t-57.5 -23.5q-33 0 -56.5 23.5t-23.5 56.5q0 34 23.5 57.5t56.5 23.5q34 0 57.5 -23.5t23.5 -57.5zM566 0h-95l-65 206h-236l-67 -206h-84l233 688h82zM340 818q0 20 -13.5 33.5t-33.5 13.5q-19 0 -33 -13.5t-14 -33.5q0 -19 14 -33t33 -14
q20 0 33.5 14t13.5 33zM391 261l-80 261q-17 54 -20 81h-2q-6 -27 -21 -81l-82 -261h205z" />
    <glyph glyph-name="AE" unicode="&#xc6;" horiz-adv-x="745" 
d="M723 0h-263l-48 206h-240l-82 -206h-85l287 688h364v-62h-263l61 -240h202v-61h-188l67 -263h188v-62zM403 262l-65 285q-8 34 -10 64h-2q-3 -15 -20 -65l-112 -284h209z" />
    <glyph glyph-name="Ccedilla" unicode="&#xc7;" horiz-adv-x="478" 
d="M447 28q-50 -38 -135 -38q-120 0 -191 104q-67 98 -67 250q0 150 67 249q71 105 191 105q82 0 134 -38l-22 -54q-44 27 -96 27q-92 0 -138 -90q-40 -76 -40 -199q0 -122 41 -198q47 -87 136 -87q52 0 96 27zM395 -124q0 -75 -178 -75q-36 0 -78 3l21 34q26 -2 50 -2
q119 0 119 39q0 34 -80 34q-20 0 -47 -2l20 31q29 3 53 3q120 0 120 -65z" />
    <glyph glyph-name="Egrave" unicode="&#xc8;" horiz-adv-x="441" 
d="M280 740h-50l-114 136q7 18 37 18t57 -17zM396 0h-319v688h319v-62h-227v-240h204v-61h-204v-263h227v-62z" />
    <glyph glyph-name="Eacute" unicode="&#xc9;" horiz-adv-x="441" 
d="M355 876l-114 -136h-50l70 137q27 17 57 17t37 -18zM396 0h-319v688h319v-62h-227v-240h204v-61h-204v-263h227v-62z" />
    <glyph glyph-name="Ecircumflex" unicode="&#xca;" horiz-adv-x="441" 
d="M363 760l-25 -21l-107 79l-107 -79l-25 21l98 101q15 15 33 15q20 0 35 -15zM396 0h-319v688h319v-62h-227v-240h204v-61h-204v-263h227v-62z" />
    <glyph glyph-name="Edieresis" unicode="&#xcb;" horiz-adv-x="441" 
d="M360 800q0 -18 -13.5 -30.5t-31.5 -12.5q-19 0 -32.5 12.5t-13.5 30.5t13.5 30.5t32.5 12.5q18 0 31.5 -12.5t13.5 -30.5zM196 800q0 -18 -13.5 -30.5t-32.5 -12.5t-32 12.5t-13 30.5t13 30.5t32 12.5t32.5 -12.5t13.5 -30.5zM396 0h-319v688h319v-62h-227v-240h204v-61
h-204v-263h227v-62z" />
    <glyph glyph-name="Igrave" unicode="&#xcc;" horiz-adv-x="253" 
d="M179 740h-50l-114 136q7 18 37 18t57 -17zM173 0h-92v688h92v-688z" />
    <glyph glyph-name="Iacute" unicode="&#xcd;" horiz-adv-x="253" 
d="M238 876l-115 -136h-49l70 137q27 17 57 17t37 -18zM172 0h-92v688h92v-688z" />
    <glyph glyph-name="Icircumflex" unicode="&#xce;" horiz-adv-x="253" 
d="M258 760l-25 -21l-106 79l-108 -79l-25 21l99 101q15 15 33 15q19 0 34 -15zM172 0h-92v688h92v-688z" />
    <glyph glyph-name="Idieresis" unicode="&#xcf;" horiz-adv-x="253" 
d="M254 800q0 -18 -13.5 -30.5t-31.5 -12.5q-19 0 -32.5 12.5t-13.5 30.5t13.5 30.5t32.5 12.5q18 0 31.5 -12.5t13.5 -30.5zM89 800q0 -18 -13 -30.5t-32 -12.5t-32 12.5t-13 30.5t13 30.5t32 12.5t32 -12.5t13 -30.5zM172 0h-92v688h92v-688z" />
    <glyph glyph-name="Eth" unicode="&#xd0;" horiz-adv-x="622" 
d="M568 351q0 -166 -68 -260q-73 -101 -215 -101q-122 0 -182 38v319h-61v50h61v263q69 38 178 38q140 0 215 -94q72 -90 72 -253zM473 352q0 287 -195 287q-52 0 -85 -13v-229h115v-50h-115v-280q37 -13 87 -13q102 0 149 76q44 72 44 222z" />
    <glyph glyph-name="Ntilde" unicode="&#xd1;" horiz-adv-x="647" 
d="M464 806q-15 -44 -68 -52q-29 -4 -70.5 17.5t-64.5 19.5q-36 -4 -53 -44l-26 40q21 50 71 55q29 3 69 -19.5t63 -19.5q37 5 52 44zM570 0h-80l-293 502q-23 40 -44 83h-2q3 -45 3 -85v-500h-77v688h97l281 -483q23 -39 39 -73h2q-3 36 -3 76v480h77v-688z" />
    <glyph glyph-name="Ograve" unicode="&#xd2;" horiz-adv-x="605" 
d="M349 740h-50l-114 136q7 18 37 18t57 -17zM551 344q0 -159 -57 -251q-64 -103 -191 -103t-192 103q-57 92 -57 251q0 158 57 250q65 104 192 104q126 0 191 -104q57 -92 57 -250zM458 347q0 290 -155 290q-156 0 -156 -290q0 -289 156 -289q155 0 155 289z" />
    <glyph glyph-name="Oacute" unicode="&#xd3;" horiz-adv-x="605" 
d="M415 876l-114 -136h-50l70 137q27 17 57 17t37 -18zM551 344q0 -159 -57 -251q-64 -103 -191 -103t-192 103q-57 92 -57 251q0 158 57 250q65 104 192 104q126 0 191 -104q57 -92 57 -250zM458 347q0 290 -155 290q-156 0 -156 -290q0 -289 156 -289q155 0 155 289z" />
    <glyph glyph-name="Ocircumflex" unicode="&#xd4;" horiz-adv-x="605" 
d="M435 760l-25 -21l-107 79l-107 -79l-25 21l98 101q15 15 33 15q20 0 35 -15zM551 344q0 -159 -57 -251q-64 -103 -191 -103t-192 103q-57 92 -57 251q0 158 57 250q65 104 192 104q126 0 191 -104q57 -92 57 -250zM458 347q0 290 -155 290q-156 0 -156 -290
q0 -289 156 -289q155 0 155 289z" />
    <glyph glyph-name="Otilde" unicode="&#xd5;" horiz-adv-x="605" 
d="M441 806q-17 -45 -69 -52q-29 -4 -70.5 17.5t-64.5 19.5q-38 -4 -52 -44l-26 40q20 50 70 55q30 3 69.5 -19.5t62.5 -19.5q37 5 52 44zM551 344q0 -159 -57 -251q-64 -103 -191 -103t-192 103q-57 92 -57 251q0 158 57 250q65 104 192 104q126 0 191 -104q57 -92 57 -250
zM458 347q0 290 -155 290q-156 0 -156 -290q0 -289 156 -289q155 0 155 289z" />
    <glyph glyph-name="Odieresis" unicode="&#xd6;" horiz-adv-x="605" 
d="M430 800q0 -18 -13 -30.5t-32 -12.5t-32 12.5t-13 30.5t13 30.5t32 12.5t32 -12.5t13 -30.5zM266 800q0 -18 -13.5 -30.5t-32.5 -12.5t-32 12.5t-13 30.5t13 30.5t32 12.5t32.5 -12.5t13.5 -30.5zM551 344q0 -159 -57 -251q-64 -103 -191 -103t-192 103q-57 92 -57 251
q0 158 57 250q65 104 192 104q126 0 191 -104q57 -92 57 -250zM458 347q0 290 -155 290q-156 0 -156 -290q0 -289 156 -289q155 0 155 289z" />
    <glyph glyph-name="multiply" unicode="&#xd7;" 
d="M461 158l-42 -40l-155 172l-154 -171l-42 40l156 174l-157 175l42 40l155 -172l154 172l42 -40l-156 -175z" />
    <glyph glyph-name="Oslash" unicode="&#xd8;" horiz-adv-x="610" 
d="M554 344q0 -159 -57 -251q-65 -103 -192 -103q-101 0 -163 68l-53 -82l-30 19l59 92q-62 92 -62 257q0 158 58 250q65 104 191 104q99 0 160 -66l53 84l30 -19l-59 -93q65 -94 65 -260zM424 567q-41 75 -119 75q-87 0 -129 -93q-33 -76 -33 -202q0 -109 28 -177zM467 347
q0 107 -29 176l-253 -396q41 -74 120 -74q162 0 162 294z" />
    <glyph glyph-name="Ugrave" unicode="&#xd9;" horiz-adv-x="583" 
d="M353 740h-50l-114 136q7 18 37 18t57 -17zM506 196q0 -90 -58 -147q-60 -60 -157 -60q-96 0 -155 59t-59 148v492h92v-491q0 -63 37 -99.5t90 -36.5t89.5 36.5t36.5 99.5v491h84v-492z" />
    <glyph glyph-name="Uacute" unicode="&#xda;" horiz-adv-x="583" 
d="M408 876l-115 -136h-49l70 137q27 17 57 17t37 -18zM506 196q0 -90 -58 -147q-60 -60 -157 -60q-96 0 -155 59t-59 148v492h92v-491q0 -63 37 -99.5t90 -36.5t89.5 36.5t36.5 99.5v491h84v-492z" />
    <glyph glyph-name="Ucircumflex" unicode="&#xdb;" horiz-adv-x="583" 
d="M426 760l-25 -21l-107 79l-107 -79l-25 21l98 101q15 15 33 15q20 0 35 -15zM506 196q0 -90 -58 -147q-60 -60 -157 -60q-96 0 -155 59t-59 148v492h92v-491q0 -63 37 -99.5t90 -36.5t89.5 36.5t36.5 99.5v491h84v-492z" />
    <glyph glyph-name="Udieresis" unicode="&#xdc;" horiz-adv-x="583" 
d="M425 800q0 -18 -13.5 -30.5t-32.5 -12.5t-32 12.5t-13 30.5t13 30.5t32 12.5t32.5 -12.5t13.5 -30.5zM260 800q0 -18 -13.5 -30.5t-32.5 -12.5q-18 0 -31.5 12.5t-13.5 30.5t13.5 30.5t31.5 12.5q19 0 32.5 -12.5t13.5 -30.5zM506 196q0 -90 -58 -147q-60 -60 -157 -60
q-96 0 -155 59t-59 148v492h92v-491q0 -63 37 -99.5t90 -36.5t89.5 36.5t36.5 99.5v491h84v-492z" />
    <glyph glyph-name="Yacute" unicode="&#xdd;" horiz-adv-x="500" 
d="M375 876l-114 -136h-50l70 137q27 17 57 17t37 -18zM485 688l-189 -383v-305h-92v305l-187 383h100l137 -311h2l142 311h87z" />
    <glyph glyph-name="Thorn" unicode="&#xde;" 
d="M480 367q0 -90 -59 -145q-66 -60 -189 -60q-16 0 -33 1l-31 2v-165h-91v688h91v-122q46 13 81 13q113 0 174 -61q57 -56 57 -151zM391 363q0 79 -40.5 121t-108.5 42q-36 0 -74 -11v-293l28 -3q18 -2 35 -2q80 0 122 43q38 39 38 103z" />
    <glyph glyph-name="germandbls" unicode="&#xdf;" horiz-adv-x="550" 
d="M506 149q0 -67 -49 -111.5t-122 -44.5q-64 0 -100 24l19 57q28 -16 69 -16q42 0 68.5 25.5t26.5 66.5q0 33 -16 55t-56 47q-82 52 -82 129q0 97 108 126q8 25 8 66q0 162 -105 162q-113 0 -113 -200v-535h-88v531q0 108 42 177q52 86 159 86q92 0 144 -65q47 -61 47 -156
q0 -48 -14 -94q-107 -14 -107 -93q0 -48 72 -94q89 -56 89 -143z" />
    <glyph glyph-name="agrave" unicode="&#xe0;" horiz-adv-x="499" 
d="M303 598h-50l-114 136q7 18 37 18t57 -17zM428 28q-68 -38 -179 -38q-205 0 -205 159q0 99 88 148q70 39 213 54v33q0 107 -119 107q-62 0 -130 -34l-21 52q73 40 165 40q188 0 188 -175v-346zM345 59v247q-113 -14 -159 -43q-58 -36 -58 -112q0 -110 128 -110
q56 0 89 18z" />
    <glyph glyph-name="aacute" unicode="&#xe1;" horiz-adv-x="499" 
d="M381 734l-114 -136h-50l70 137q27 17 57 17t37 -18zM428 28q-68 -38 -179 -38q-205 0 -205 159q0 99 88 148q70 39 213 54v33q0 107 -119 107q-62 0 -130 -34l-21 52q73 40 165 40q188 0 188 -175v-346zM345 59v247q-113 -14 -159 -43q-58 -36 -58 -112q0 -110 128 -110
q56 0 89 18z" />
    <glyph glyph-name="acircumflex" unicode="&#xe2;" horiz-adv-x="499" 
d="M383 619l-25 -22l-107 79l-107 -79l-26 22l99 100q15 15 33 15q19 0 34 -15zM428 28q-68 -38 -179 -38q-205 0 -205 159q0 99 88 148q70 39 213 54v33q0 107 -119 107q-62 0 -130 -34l-21 52q73 40 165 40q188 0 188 -175v-346zM345 59v247q-113 -14 -159 -43
q-58 -36 -58 -112q0 -110 128 -110q56 0 89 18z" />
    <glyph glyph-name="atilde" unicode="&#xe3;" horiz-adv-x="499" 
d="M390 665q-17 -46 -69 -53q-29 -4 -70.5 18.5t-64.5 19.5q-35 -4 -53 -44l-25 40q20 49 70 54q30 3 69.5 -19.5t62.5 -19.5q37 4 52 44zM428 28q-68 -38 -179 -38q-205 0 -205 159q0 99 88 148q70 39 213 54v33q0 107 -119 107q-62 0 -130 -34l-21 52q73 40 165 40
q188 0 188 -175v-346zM345 59v247q-113 -14 -159 -43q-58 -36 -58 -112q0 -110 128 -110q56 0 89 18z" />
    <glyph glyph-name="adieresis" unicode="&#xe4;" horiz-adv-x="499" 
d="M383 659q0 -18 -13.5 -30t-32.5 -12t-32 12.5t-13 29.5q0 18 13 30.5t32 12.5t32.5 -12.5t13.5 -30.5zM218 659q0 -18 -13.5 -30t-31.5 -12q-19 0 -32.5 12.5t-13.5 29.5q0 18 13.5 30.5t32.5 12.5q18 0 31.5 -12.5t13.5 -30.5zM428 28q-68 -38 -179 -38q-205 0 -205 159
q0 99 88 148q70 39 213 54v33q0 107 -119 107q-62 0 -130 -34l-21 52q73 40 165 40q188 0 188 -175v-346zM345 59v247q-113 -14 -159 -43q-58 -36 -58 -112q0 -110 128 -110q56 0 89 18z" />
    <glyph glyph-name="aring" unicode="&#xe5;" horiz-adv-x="499" 
d="M335 677q0 -34 -23.5 -57.5t-57.5 -23.5q-33 0 -56.5 23.5t-23.5 57.5q0 33 23.5 56.5t56.5 23.5q34 0 57.5 -23.5t23.5 -56.5zM428 28q-68 -38 -179 -38q-205 0 -205 159q0 99 88 148q70 39 213 54v33q0 107 -119 107q-62 0 -130 -34l-21 52q73 40 165 40
q188 0 188 -175v-346zM301 677q0 20 -13.5 33.5t-33.5 13.5q-19 0 -33 -13.5t-14 -33.5q0 -19 14 -33t33 -14q20 0 33.5 14t13.5 33zM345 59v247q-113 -14 -159 -43q-58 -36 -58 -112q0 -110 128 -110q56 0 89 18z" />
    <glyph glyph-name="ae" unicode="&#xe6;" horiz-adv-x="804" 
d="M754 285l-337 -50q4 -92 50 -139q42 -43 113 -43q80 0 132 29l23 -55q-61 -37 -163 -37q-119 0 -179 99q-45 -99 -161 -99q-188 0 -188 158q0 173 300 202v34q0 108 -125 108q-60 0 -122 -33l-20 52q68 38 159 38q119 0 155 -97q49 97 159 97q205 0 204 -264zM670 322
q-3 170 -124 170q-61 0 -95 -49q-39 -54 -38 -159zM344 146v157q-115 -14 -162 -42q-58 -36 -58 -112q0 -107 112 -107q45 0 76.5 28t31.5 76z" />
    <glyph glyph-name="ccedilla" unicode="&#xe7;" horiz-adv-x="411" 
d="M376 26q-40 -36 -121 -36q-90 0 -147.5 76t-57.5 204q0 130 59 206q56 73 148 73q78 0 119 -36l-21 -51q-35 26 -80 26q-136 0 -136 -215q0 -99 34 -157q35 -61 99 -61q45 0 82 26zM340 -124q0 -75 -178 -75q-36 0 -78 3l20 34q26 -2 51 -2q119 0 119 39q0 34 -80 34
q-20 0 -47 -2l20 31q29 3 53 3q120 0 120 -65z" />
    <glyph glyph-name="egrave" unicode="&#xe8;" horiz-adv-x="522" 
d="M310 598h-50l-114 136q7 18 37 18t57 -17zM472 285l-339 -49q15 -182 164 -182q79 0 133 31l23 -58q-61 -37 -163 -37q-110 0 -173 69q-67 73 -67 212q0 134 61 208q58 70 156 70q208 0 205 -264zM388 322q0 170 -124 170q-62 0 -97 -50q-38 -54 -37 -159z" />
    <glyph glyph-name="eacute" unicode="&#xe9;" horiz-adv-x="522" 
d="M390 734l-114 -136h-50l70 137q27 17 57 17t37 -18zM472 285l-339 -49q15 -182 164 -182q79 0 133 31l23 -58q-61 -37 -163 -37q-110 0 -173 69q-67 73 -67 212q0 134 61 208q58 70 156 70q208 0 205 -264zM388 322q0 170 -124 170q-62 0 -97 -50q-38 -54 -37 -159z" />
    <glyph glyph-name="ecircumflex" unicode="&#xea;" horiz-adv-x="522" 
d="M398 619l-26 -22l-106 79l-108 -79l-25 22l99 100q15 15 33 15q19 0 34 -15zM472 285l-339 -49q15 -182 164 -182q79 0 133 31l23 -58q-61 -37 -163 -37q-110 0 -173 69q-67 73 -67 212q0 134 61 208q58 70 156 70q208 0 205 -264zM388 322q0 170 -124 170q-62 0 -97 -50
q-38 -54 -37 -159z" />
    <glyph glyph-name="edieresis" unicode="&#xeb;" horiz-adv-x="522" 
d="M395 659q0 -18 -13 -30t-32 -12t-32 12.5t-13 29.5q0 18 13 30.5t32 12.5t32 -12.5t13 -30.5zM231 659q0 -18 -13.5 -30t-32.5 -12t-32 12.5t-13 29.5q0 18 13 30.5t32 12.5t32.5 -12.5t13.5 -30.5zM472 285l-339 -49q15 -182 164 -182q79 0 133 31l23 -58
q-61 -37 -163 -37q-110 0 -173 69q-67 73 -67 212q0 134 61 208q58 70 156 70q208 0 205 -264zM388 322q0 170 -124 170q-62 0 -97 -50q-38 -54 -37 -159z" />
    <glyph glyph-name="igrave" unicode="&#xec;" horiz-adv-x="241" 
d="M172 598h-50l-114 136q7 18 37 18t57 -17zM165 0h-88v539h88v-539z" />
    <glyph glyph-name="iacute" unicode="&#xed;" horiz-adv-x="241" 
d="M233 734l-114 -136h-50l70 137q27 17 58 17q30 0 36 -18zM165 0h-88v539h88v-539z" />
    <glyph glyph-name="icircumflex" unicode="&#xee;" horiz-adv-x="241" 
d="M253 619l-25 -22l-107 79l-107 -79l-26 22l99 100q15 15 33 15q19 0 34 -15zM165 0h-88v539h88v-539z" />
    <glyph glyph-name="idieresis" unicode="&#xef;" horiz-adv-x="241" 
d="M248 659q0 -18 -13.5 -30t-32.5 -12q-18 0 -31.5 12.5t-13.5 29.5q0 18 13.5 30.5t31.5 12.5q19 0 32.5 -12.5t13.5 -30.5zM84 659q0 -18 -13.5 -30t-31.5 -12q-19 0 -32.5 12.5t-13.5 29.5q0 18 13.5 30.5t32.5 12.5q18 0 31.5 -12.5t13.5 -30.5zM165 0h-88v539h88v-539
z" />
    <glyph glyph-name="eth" unicode="&#xf0;" horiz-adv-x="521" 
d="M468 266q0 -127 -49 -199q-53 -79 -157 -79q-100 0 -156 74.5t-56 202.5q0 115 48 190q55 87 161 87q36 0 71 -10q-35 84 -71 143l-90 -27q-8 20 -23 35l89 28q-22 33 -47 59l73 23q13 -13 47 -58l78 24q2 -2 12 -17l12 -18l-79 -25q137 -219 137 -433zM380 269
q0 119 -36 212q-33 10 -70 10q-136 0 -136 -225q0 -217 125 -217q117 0 117 220z" />
    <glyph glyph-name="ntilde" unicode="&#xf1;" horiz-adv-x="533" 
d="M404 665q-17 -45 -69 -53q-29 -4 -70.5 18.5t-64.5 19.5q-37 -4 -52 -44l-26 40q20 49 70 54q30 3 69.5 -19.5t62.5 -19.5q37 4 52 44zM462 0h-88v392q0 100 -113 100q-58 0 -102 -19v-473h-88v511q79 38 199 38q192 0 192 -156v-393z" />
    <glyph glyph-name="ograve" unicode="&#xf2;" horiz-adv-x="521" 
d="M301 598h-49l-115 136q7 18 37 18t57 -17zM471 269q0 -125 -50 -199q-55 -80 -160 -80t-161 80q-50 74 -50 199q0 127 51 200q55 80 159 80q106 0 161 -80q50 -72 50 -200zM383 269q0 224 -122 224q-123 0 -123 -224q0 -218 123 -218q122 0 122 218z" />
    <glyph glyph-name="oacute" unicode="&#xf3;" horiz-adv-x="521" 
d="M384 734l-114 -136h-50l70 137q27 17 57 17t37 -18zM471 269q0 -125 -50 -199q-55 -80 -160 -80t-161 80q-50 74 -50 199q0 127 51 200q55 80 159 80q106 0 161 -80q50 -72 50 -200zM383 269q0 224 -122 224q-123 0 -123 -224q0 -218 123 -218q122 0 122 218z" />
    <glyph glyph-name="ocircumflex" unicode="&#xf4;" horiz-adv-x="521" 
d="M393 619l-26 -22l-106 79l-108 -79l-25 22l99 100q15 15 33 15q19 0 34 -15zM471 269q0 -125 -50 -199q-55 -80 -160 -80t-161 80q-50 74 -50 199q0 127 51 200q55 80 159 80q106 0 161 -80q50 -72 50 -200zM383 269q0 224 -122 224q-123 0 -123 -224q0 -218 123 -218
q122 0 122 218z" />
    <glyph glyph-name="otilde" unicode="&#xf5;" horiz-adv-x="521" 
d="M399 665q-15 -45 -68 -53q-29 -4 -70.5 18.5t-64.5 19.5q-35 -4 -53 -44l-26 40q22 49 71 54q30 3 69.5 -19.5t62.5 -19.5q37 4 52 44zM471 269q0 -125 -50 -199q-55 -80 -160 -80t-161 80q-50 74 -50 199q0 127 51 200q55 80 159 80q106 0 161 -80q50 -72 50 -200z
M383 269q0 224 -122 224q-123 0 -123 -224q0 -218 123 -218q122 0 122 218z" />
    <glyph glyph-name="odieresis" unicode="&#xf6;" horiz-adv-x="521" 
d="M388 659q0 -18 -13.5 -30t-32.5 -12q-18 0 -31.5 12.5t-13.5 29.5q0 18 13.5 30.5t31.5 12.5q19 0 32.5 -12.5t13.5 -30.5zM223 659q0 -18 -13.5 -30t-31.5 -12q-19 0 -32.5 12.5t-13.5 29.5q0 18 13.5 30.5t32.5 12.5q18 0 31.5 -12.5t13.5 -30.5zM471 269
q0 -125 -50 -199q-55 -80 -160 -80t-161 80q-50 74 -50 199q0 127 51 200q55 80 159 80q106 0 161 -80q50 -72 50 -200zM383 269q0 224 -122 224q-123 0 -123 -224q0 -218 123 -218q122 0 122 218z" />
    <glyph glyph-name="divide" unicode="&#xf7;" 
d="M313 492q0 -21 -14.5 -35.5t-34.5 -14.5q-21 0 -35.5 14.5t-14.5 35.5q0 20 14.5 34.5t35.5 14.5q20 0 34.5 -14.5t14.5 -34.5zM456 307h-384v52h384v-52zM313 174q0 -21 -14.5 -35.5t-34.5 -14.5q-21 0 -35.5 14.5t-14.5 35.5q0 20 14.5 34.5t35.5 14.5q20 0 34.5 -14.5
t14.5 -34.5z" />
    <glyph glyph-name="oslash" unicode="&#xf8;" horiz-adv-x="523" 
d="M473 269q0 -125 -51 -199q-55 -80 -160 -80q-73 0 -123 41l-45 -78l-26 16l48 83q-66 73 -66 217q0 127 51 200q55 80 160 80q72 0 120 -39l44 76l26 -16l-46 -80q68 -74 68 -221zM350 455q-33 46 -88 46q-130 0 -130 -231q0 -91 25 -147zM391 270q0 93 -25 152
l-192 -332q31 -44 88 -44q129 0 129 224z" />
    <glyph glyph-name="ugrave" unicode="&#xf9;" horiz-adv-x="523" 
d="M314 598h-49l-115 136q7 18 37 18t57 -17zM452 32q-75 -43 -190 -43q-191 0 -191 176v374h88v-377q0 -50 26 -79q29 -32 82 -32q60 0 97 22v466h88v-507z" />
    <glyph glyph-name="uacute" unicode="&#xfa;" horiz-adv-x="523" 
d="M387 734l-115 -136h-49l70 137q27 17 57 17t37 -18zM452 32q-75 -43 -190 -43q-191 0 -191 176v374h88v-377q0 -50 26 -79q29 -32 82 -32q60 0 97 22v466h88v-507z" />
    <glyph glyph-name="ucircumflex" unicode="&#xfb;" horiz-adv-x="523" 
d="M394 619l-25 -22l-107 79l-107 -79l-25 22l98 100q15 15 34 15t34 -15zM452 32q-75 -43 -190 -43q-191 0 -191 176v374h88v-377q0 -50 26 -79q29 -32 82 -32q60 0 97 22v466h88v-507z" />
    <glyph glyph-name="udieresis" unicode="&#xfc;" horiz-adv-x="523" 
d="M389 659q0 -18 -13.5 -30t-31.5 -12q-19 0 -32.5 12.5t-13.5 29.5q0 18 13.5 30.5t32.5 12.5q18 0 31.5 -12.5t13.5 -30.5zM224 659q0 -18 -13 -30t-32 -12t-32 12.5t-13 29.5q0 18 13 30.5t32 12.5t32 -12.5t13 -30.5zM452 32q-75 -43 -190 -43q-191 0 -191 176v374h88
v-377q0 -50 26 -79q29 -32 82 -32q60 0 97 22v466h88v-507z" />
    <glyph glyph-name="yacute" unicode="&#xfd;" horiz-adv-x="488" 
d="M372 734l-115 -136h-49l70 137q27 17 57 17t37 -18zM462 539l-249 -754h-93l89 215l-180 539h94l126 -436h1l130 436h82z" />
    <glyph glyph-name="thorn" unicode="&#xfe;" 
d="M478 280q0 -133 -68 -212q-66 -75 -169 -75q-40 0 -82 12v-220h-88v1000h87v-262q46 24 96 24q106 0 165 -71.5t59 -195.5zM391 272q0 223 -154 223q-44 0 -78 -19v-420q38 -10 65 -10q88 0 131 70q36 58 36 156z" />
    <glyph glyph-name="ydieresis" unicode="&#xff;" horiz-adv-x="488" 
d="M377 659q0 -18 -13 -30t-32 -12t-32 12.5t-13 29.5q0 18 13 30.5t32 12.5t32 -12.5t13 -30.5zM213 659q0 -18 -13.5 -30t-32.5 -12t-32 12.5t-13 29.5q0 18 13 30.5t32 12.5t32.5 -12.5t13.5 -30.5zM462 539l-249 -754h-93l89 215l-180 539h94l126 -436h1l130 436h82z
" />
    <glyph glyph-name="dotlessi" unicode="&#x131;" horiz-adv-x="229" 
d="M158 0h-87v539h87v-539z" />
    <glyph glyph-name="Lslash" unicode="&#x141;" horiz-adv-x="419" 
d="M390 0h-298v412l-63 -32v50l63 32v226h92v-192l73 37v-49l-73 -37v-385h206v-62z" />
    <glyph glyph-name="lslash" unicode="&#x142;" horiz-adv-x="293" 
d="M263 485l-73 -38v-447h-88v415l-69 -38v53l69 36v319h88v-287l73 37v-50z" />
    <glyph glyph-name="OE" unicode="&#x152;" horiz-adv-x="761" 
d="M716 0h-305q-32 -10 -82 -10q-136 0 -208 102q-67 93 -67 252q0 160 66 253q72 101 208 101q43 0 83 -10h305v-62h-227v-240h205v-61h-205v-262h227v-63zM403 58v574q-31 9 -72 9q-103 0 -149 -101q-34 -75 -34 -195t35 -194q46 -100 148 -100q48 0 72 7z" />
    <glyph glyph-name="oe" unicode="&#x153;" horiz-adv-x="842" 
d="M792 281l-335 -38q17 -191 165 -191q72 0 129 31l23 -56q-63 -37 -162 -37q-132 0 -189 123q-46 -123 -163 -123q-104 0 -159 80q-51 74 -51 199q0 127 51 200q55 80 159 80q106 0 161 -111q53 111 167 111q204 0 204 -268zM707 319q0 177 -122 177q-61 0 -96 -50
q-37 -54 -36 -156zM382 270q0 223 -122 223q-124 0 -124 -223q0 -220 124 -220q122 0 122 220z" />
    <glyph glyph-name="Scaron" unicode="&#x160;" horiz-adv-x="465" 
d="M365 855l-99 -100q-15 -15 -35 -15q-18 0 -33 15l-99 100l25 21l108 -79l108 79zM411 194q0 -90 -58.5 -147t-149.5 -57q-101 0 -160 38l24 64q52 -32 120 -32q59 0 94 35t35 94q0 46 -27.5 76t-92.5 56q-146 58 -146 184q0 81 53.5 137t140.5 56q88 0 141 -37l-22 -58
q-51 32 -109 32q-54 0 -84 -32.5t-30 -88.5q0 -49 34 -80q25 -24 81 -46q156 -61 156 -194z" />
    <glyph glyph-name="scaron" unicode="&#x161;" horiz-adv-x="404" 
d="M335 714l-99 -101q-15 -15 -35 -15q-18 0 -33 15l-99 101l25 21l108 -80l108 80zM357 150q0 -64 -49 -110q-52 -48 -132 -48q-89 0 -138 37l24 58q38 -32 105 -32q44 0 72 26.5t28 66.5t-21 63t-68 40q-126 47 -126 151q0 62 44.5 105t116.5 43q71 0 126 -37l-23 -53
q-40 30 -90 30q-42 0 -66 -24.5t-24 -60.5q0 -63 90 -97q131 -50 131 -158z" />
    <glyph glyph-name="Ydieresis" unicode="&#x178;" horiz-adv-x="500" 
d="M382 800q0 -18 -13.5 -30.5t-32.5 -12.5t-32 12.5t-13 30.5t13 30.5t32 12.5t32.5 -12.5t13.5 -30.5zM217 800q0 -18 -13.5 -30.5t-31.5 -12.5q-19 0 -32.5 12.5t-13.5 30.5t13.5 30.5t32.5 12.5q18 0 31.5 -12.5t13.5 -30.5zM485 688l-189 -383v-305h-92v305l-187 383
h100l137 -311h2l142 311h87z" />
    <glyph glyph-name="Zcaron" unicode="&#x17d;" horiz-adv-x="433" 
d="M347 855l-99 -100q-15 -15 -34 -15t-34 15l-99 100l25 21l109 -79l107 79zM400 0h-376l253 626h-237v62h353l-250 -626h257v-62z" />
    <glyph glyph-name="zcaron" unicode="&#x17e;" horiz-adv-x="417" 
d="M338 714l-99 -101q-15 -15 -34 -15t-34 15l-99 101l25 21l109 -80l107 80zM377 0h-347l227 484h-210v55h322l-222 -484h230v-55z" />
    <glyph glyph-name="florin" unicode="&#x192;" horiz-adv-x="563" 
d="M518 684l-12 -56q-24 8 -50 8q-48 0 -75 -53q-14 -29 -28 -99l-15 -73h111v-53h-122l-67 -357q-42 -223 -185 -223q-34 0 -64 12l11 62q21 -8 40 -8q47 0 74 44q23 40 41 134l63 336h-109v53h120q1 6 15 77q20 105 52 149q41 60 124 60q44 0 76 -13z" />
    <glyph glyph-name="circumflex" unicode="&#x2c6;" horiz-adv-x="196" 
d="M230 619l-25 -22l-107 79l-107 -79l-25 22l98 100q15 15 34 15t34 -15z" />
    <glyph glyph-name="caron" unicode="&#x2c7;" horiz-adv-x="196" 
d="M231 714l-99 -101q-15 -15 -34 -15t-34 15l-99 101l25 21l108 -80l108 80z" />
    <glyph glyph-name="breve" unicode="&#x2d8;" horiz-adv-x="196" 
d="M227 717q0 -43 -29 -77q-36 -42 -100 -42t-100 42q-29 34 -29 77l31 11q17 -79 97 -79q79 0 100 79z" />
    <glyph glyph-name="dotaccent" unicode="&#x2d9;" horiz-adv-x="196" 
d="M146 691q0 -20 -14 -34.5t-34 -14.5t-34 14.5t-14 34.5t14 34t34 14t34 -14t14 -34z" />
    <glyph glyph-name="ring" unicode="&#x2da;" horiz-adv-x="196" 
d="M178 677q0 -34 -23.5 -57.5t-56.5 -23.5q-34 0 -57.5 23.5t-23.5 57.5q0 33 23.5 56.5t57.5 23.5q33 0 56.5 -23.5t23.5 -56.5zM144 677q0 20 -13.5 33.5t-32.5 13.5t-33 -13.5t-14 -33.5q0 -19 14 -33t33 -14t32.5 13.5t13.5 33.5z" />
    <glyph glyph-name="ogonek" unicode="&#x2db;" horiz-adv-x="196" 
d="M243 -151q-54 -23 -106 -23q-86 0 -86 54q0 36 22 63.5t85 61.5h62q-61 -35 -84 -60q-19 -22 -19 -49q0 -28 48 -28q30 0 69 14z" />
    <glyph glyph-name="tilde" unicode="&#x2dc;" horiz-adv-x="196" 
d="M239 665q-17 -46 -68 -53q-29 -4 -71 18.5t-65 19.5q-34 -4 -52 -44l-26 40q22 49 70 54q30 3 69.5 -19.5t62.5 -19.5q37 4 52 44z" />
    <glyph glyph-name="hungarumlaut" unicode="&#x2dd;" horiz-adv-x="196" 
d="M258 725l-121 -128h-40l85 127q21 17 50 17q26 0 26 -16zM127 725l-121 -128h-40l85 127q21 17 50 17q26 0 26 -16z" />
    <glyph glyph-name="Delta" unicode="&#x394;" horiz-adv-x="575" 
d="M561 0h-547l233 688h83zM451 58l-144 464q-9 30 -20 75h-2q-6 -22 -22 -75l-147 -464h335z" />
    <glyph glyph-name="Delta" unicode="&#x2206;" horiz-adv-x="575" 
d="M561 0h-547l233 688h83zM451 58l-144 464q-9 30 -20 75h-2q-6 -22 -22 -75l-147 -464h335z" />
    <glyph glyph-name="Omega" unicode="&#x3a9;" horiz-adv-x="650" 
d="M604 0h-239q62 67 98 171q34 101 34 212q0 254 -172 254t-172 -254q0 -111 35 -213t97 -170h-239v62h133q-48 58 -81 145q-35 93 -35 178q0 144 66 226q69 87 196 87q128 0 197 -87q66 -82 66 -226q0 -83 -35 -177q-33 -87 -80 -146h131v-62z" />
    <glyph glyph-name="Omega" unicode="&#x2126;" horiz-adv-x="650" 
d="M604 0h-239q62 67 98 171q34 101 34 212q0 254 -172 254t-172 -254q0 -111 35 -213t97 -170h-239v62h133q-48 58 -81 145q-35 93 -35 178q0 144 66 226q69 87 196 87q128 0 197 -87q66 -82 66 -226q0 -83 -35 -177q-33 -87 -80 -146h131v-62z" />
    <glyph glyph-name="pi" unicode="&#x3c0;" horiz-adv-x="644" 
d="M588 0q-14 -1 -26 -1q-85 0 -115 54q-18 31 -18 96v333h-215v-482h-88v482h-72v57h534v-57h-71v-331q0 -46 10 -64q15 -30 61 -29v-58z" />
    <glyph glyph-name="endash" unicode="&#x2013;" horiz-adv-x="400" 
d="M400 305h-400v61h400v-61z" />
    <glyph glyph-name="emdash" unicode="&#x2014;" horiz-adv-x="800" 
d="M800 309h-800v52h800v-52z" />
    <glyph glyph-name="quoteleft" unicode="&#x2018;" horiz-adv-x="264" 
d="M224 785l-80 -247q-19 -25 -55 -25q-27 0 -34 25l123 247h46z" />
    <glyph glyph-name="quoteright" unicode="&#x2019;" horiz-adv-x="264" 
d="M209 764l-123 -247h-46l80 247q18 25 55 25q28 0 34 -25z" />
    <glyph glyph-name="quotesinglbase" unicode="&#x201a;" horiz-adv-x="264" 
d="M209 78l-123 -247h-46l80 247q19 25 55 25q27 0 34 -25z" />
    <glyph glyph-name="quotedblleft" unicode="&#x201c;" horiz-adv-x="439" 
d="M399 785l-80 -247q-19 -25 -55 -25q-29 0 -34 25l123 247h46zM224 785l-80 -247q-19 -25 -55 -25q-27 0 -34 25l123 247h46z" />
    <glyph glyph-name="quotedblright" unicode="&#x201d;" horiz-adv-x="439" 
d="M384 764l-124 -247h-45l80 247q18 25 55 25q28 0 34 -25zM209 764l-123 -247h-46l80 247q18 25 55 25q28 0 34 -25z" />
    <glyph glyph-name="quotedblbase" unicode="&#x201e;" horiz-adv-x="439" 
d="M384 78l-124 -247h-45l80 247q19 25 55 25q27 0 34 -25zM209 78l-123 -247h-46l80 247q19 25 55 25q27 0 34 -25z" />
    <glyph glyph-name="dagger" unicode="&#x2020;" horiz-adv-x="553" 
d="M503 457l-191 8l9 -680h-90l9 680l-190 -8v86l190 -8l-10 250h91l-9 -250l191 8v-86z" />
    <glyph glyph-name="daggerdbl" unicode="&#x2021;" horiz-adv-x="553" 
d="M503 54l-192 6l9 -275h-87l8 275l-191 -6v76l191 -7l-2 172l2 179l-191 -7v76l191 -7l-8 249h87l-9 -249l192 7v-76l-191 7l1 -178l-1 -173l191 7v-76z" />
    <glyph glyph-name="bullet" unicode="&#x2022;" horiz-adv-x="324" 
d="M256 356q0 -39 -27.5 -66.5t-66.5 -27.5t-66.5 27.5t-27.5 66.5t27.5 66.5t66.5 27.5t66.5 -27.5t27.5 -66.5z" />
    <glyph glyph-name="ellipsis" unicode="&#x2026;" horiz-adv-x="838" 
d="M756 53q0 -24 -17 -40.5t-41 -16.5t-41 16.5t-17 40.5t17 41t41 17t41 -17t17 -41zM476 53q0 -24 -16.5 -40.5t-40.5 -16.5t-41 16.5t-17 40.5t17 41t41 17t40.5 -17t16.5 -41zM197 53q0 -24 -17 -40.5t-40 -16.5q-24 0 -41 16.5t-17 40.5t17 41t41 17q23 0 40 -17
t17 -41z" />
    <glyph glyph-name="perthousand" unicode="&#x2030;" horiz-adv-x="1196" 
d="M1127 225q1 -236 -135 -236t-135 236q1 234 135 234t135 -234zM785 225q1 -236 -134 -236q-136 0 -135 236q1 234 135 234q133 0 134 -234zM566 682l-234 -690l-46 14l234 689zM338 464q0 -235 -134 -235q-135 0 -135 235t135 235q134 0 134 -235zM1066 226
q1 194 -74 194q-76 0 -75 -194q1 -192 75 -192q73 0 74 192zM725 226q1 194 -74 194q-76 0 -75 -194q1 -191 75 -191q73 0 74 191zM278 465q1 195 -74 195t-75 -195q0 -191 75 -191q73 0 74 191z" />
    <glyph glyph-name="guilsinglleft" unicode="&#x2039;" horiz-adv-x="330" 
d="M258 147l-47 -31l-151 218l151 218l47 -31l-128 -187z" />
    <glyph glyph-name="guilsinglright" unicode="&#x203a;" horiz-adv-x="330" 
d="M270 334l-151 -218l-47 31l127 187l-127 187l47 31z" />
    <glyph glyph-name="fraction" unicode="&#x2044;" horiz-adv-x="160" 
d="M272 680l-332 -695l-52 23l331 694z" />
    <glyph glyph-name="trademark" unicode="&#x2122;" horiz-adv-x="782" 
d="M712 341h-48l-36 303l-92 -303h-47l-93 303l-34 -303h-49l45 347h70l85 -297l84 297h71zM289 650h-96v-309h-50v309h-97v38h243v-38z" />
    <glyph glyph-name="partialdiff" unicode="&#x2202;" 
d="M474 333q0 -142 -58 -234q-68 -108 -198 -108q-80 0 -126 50q-42 46 -42 121q0 103 68.5 176.5t175.5 73.5q44 0 91 -14q-11 91 -75 158q-55 57 -127 80l25 58q103 -29 175 -108q91 -101 91 -253zM391 350q-43 13 -82 13q-82 0 -129 -54.5t-47 -137.5q0 -120 95 -120
q81 0 124 88q39 80 39 211z" />
    <glyph glyph-name="product" unicode="&#x220f;" horiz-adv-x="825" 
d="M766 343q0 -146 -104 -249.5t-250 -103.5t-249.5 103.5t-103.5 249.5q0 147 103.5 250.5t249.5 103.5t250 -103.5t104 -250.5zM723 343q0 128 -91 219.5t-220 91.5q-128 0 -219 -91.5t-91 -219.5t91 -219t219 -91q129 0 220 91t91 219zM556 438q0 -61 -41 -94t-111 -33
q-19 0 -40 3v-190h-48v423q39 21 101 21q57 0 94 -29q45 -35 45 -101zM507 439q0 90 -96 90q-24 0 -47 -9v-168q17 -2 32 -2q111 0 111 89z" />
    <glyph glyph-name="summation" unicode="&#x2211;" 
d="M480 -215h-426l240 487l-239 416h416v-63h-284l200 -340l-211 -427l304 -1v-72z" />
    <glyph glyph-name="radical" unicode="&#x221a;" 
d="M499 785l-176 -785h-80l-137 452l-80 1v48h152l102 -394h2l140 678h77z" />
    <glyph glyph-name="infinity" unicode="&#x221e;" horiz-adv-x="855" 
d="M783 339q0 -71 -46 -119t-117 -48q-58 0 -102 29q-41 26 -92 93q-52 -68 -90 -93q-42 -29 -100 -29q-72 0 -118 47.5t-46 119.5t46 119.5t118 47.5q55 0 99 -29q38 -25 93 -92q57 70 88 92q42 29 103 29q71 0 117.5 -48t46.5 -119zM726 340q0 45 -31 76t-76 31
q-44 0 -74 -21.5t-79 -84.5q46 -59 75 -81q36 -27 78 -27q46 0 76.5 30.5t30.5 76.5zM390 338q-51 60 -79 81q-35 26 -75 26q-46 0 -77 -30.5t-31 -76.5q0 -44 31.5 -75.5t76.5 -31.5q43 0 77 25q31 22 77 82z" />
    <glyph glyph-name="integral" unicode="&#x222b;" 
d="M424 727q-45 1 -73 -22q-33 -26 -33 -80v-669q0 -80 -52.5 -127.5t-141.5 -43.5v58q45 -1 74 22q34 26 34 79v669q0 81 52 128t140 43v-57z" />
    <glyph glyph-name="approxequal" unicode="&#x2248;" 
d="M456 408q-39 -50 -108 -50q-32 0 -86.5 33t-88.5 33q-59 0 -101 -44v59q40 44 101 44q34 0 89 -32.5t85 -32.5q66 0 109 49v-59zM456 227q-38 -49 -108 -49q-32 0 -86.5 32.5t-88.5 32.5q-59 0 -101 -44v59q41 45 101 45q34 0 89 -33t85 -33q64 0 109 49v-59z" />
    <glyph glyph-name="approxequal" unicode="&#x22f2;" 
d="M456 408q-39 -50 -108 -50q-32 0 -86.5 33t-88.5 33q-59 0 -101 -44v59q40 44 101 44q34 0 89 -32.5t85 -32.5q66 0 109 49v-59zM456 227q-38 -49 -108 -49q-32 0 -86.5 32.5t-88.5 32.5q-59 0 -101 -44v59q41 45 101 45q34 0 89 -33t85 -33q64 0 109 49v-59z" />
    <glyph glyph-name="notequal" unicode="&#x2260;" 
d="M456 218h-234l-70 -115l-39 24l56 91h-97v58h131l70 115h-201v57h235l66 110l40 -23l-53 -87h96v-57h-129l-71 -115h200v-58z" />
    <glyph glyph-name="lessequal" unicode="&#x2264;" 
d="M456 227l-384 147v53l384 147v-61l-312 -113l312 -113v-60zM456 105h-384v56h384v-56z" />
    <glyph glyph-name="greaterequal" unicode="&#x2265;" 
d="M456 374l-384 -147v60l312 113l-312 113v61l384 -147v-53zM456 105h-384v56l384 -1v-55z" />
    <glyph glyph-name="lozenge" unicode="&#x25ca;" horiz-adv-x="641" 
d="M591 344l-271 -340l-270 340l270 340zM514 335l-200 253l-186 -236l200 -252z" />
    <glyph glyph-name="fi" unicode="&#xf001;" horiz-adv-x="527" 
d="M456 691q0 -20 -14.5 -33.5t-35.5 -13.5t-36 14t-15 33t15 33t36 14t35.5 -13.5t14.5 -33.5zM450 0h-88v539h88v-539zM283 484h-94v-484h-88v484h-61v55h61v76q0 81 47.5 127.5t134.5 42.5v-56q-94 -5 -94 -104v-86h94v-55z" />
    <glyph glyph-name="fl" unicode="&#xf002;" horiz-adv-x="533" 
d="M456 0h-88v785h88v-785zM283 484h-94v-484h-88v484h-61v55h61v76q0 81 47.5 127.5t134.5 42.5v-56q-94 -5 -94 -104v-86h94v-55z" />
    </font>
</defs>
</svg>
